{"glyphs":{"0":{"ha":290,"x_min":28,"x_max":263,"o":"m 151 186 q 168 335 168 235 q 150 467 168 433 q 140 311 140 421 q 151 186 140 226 m 136 -11 q 51 103 72 -11 q 28 351 28 228 q 51 575 28 465 l 51 585 q 50 597 51 592 q 49 608 49 603 q 63 645 49 628 q 106 663 78 663 q 172 631 143 663 q 257 457 243 557 q 263 358 263 408 q 222 81 263 213 q 136 -11 193 -11 z "},"1":{"ha":214,"x_min":28,"x_max":186,"o":"m 139 -175 l 133 -175 q 89 -149 106 -175 q 72 -83 74 -118 q 67 174 67 10 q 74 626 67 497 q 54 656 74 647 q 28 699 28 671 q 36 731 28 714 q 83 778 51 761 q 113 785 99 785 q 165 751 146 785 q 183 596 183 718 q 181 108 183 322 q 186 -111 181 42 q 139 -175 186 -169 z "},"2":{"ha":381,"x_min":28,"x_max":354,"o":"m 289 -3 q 154 40 215 7 q 93 133 93 74 q 113 226 93 169 q 194 496 169 394 q 204 564 204 515 l 204 574 q 143 496 161 539 q 140 488 140 492 q 146 476 140 482 q 156 446 156 461 q 144 414 156 431 q 93 394 124 394 q 69 399 81 394 q 28 464 28 414 q 31 482 28 474 q 119 650 50 581 q 222 697 167 697 q 318 568 318 697 q 315 531 318 550 q 275 364 303 446 q 208 147 208 154 q 228 129 208 138 q 296 110 260 115 q 354 51 354 100 q 317 1 354 14 q 289 -3 306 -3 z "},"3":{"ha":378,"x_min":28,"x_max":350,"o":"m 99 -190 q 28 -118 35 -190 q 86 -24 28 -24 q 129 -44 101 -24 q 232 158 210 43 q 238 207 238 183 q 189 339 238 283 q 161 390 164 367 q 176 447 161 418 q 229 626 229 540 q 218 679 229 674 q 209 676 214 679 q 200 672 204 674 q 169 640 175 658 q 122 600 156 600 q 79 625 96 600 q 68 663 68 642 q 83 703 68 682 q 207 788 129 768 q 233 790 221 790 q 322 732 292 790 q 342 636 342 694 q 292 428 342 526 q 288 410 288 418 q 296 383 288 396 q 350 207 350 307 q 338 113 350 161 q 190 -143 299 -35 q 99 -190 146 -190 z "},"4":{"ha":447,"x_min":28,"x_max":419,"o":"m 235 -106 q 183 -37 183 -99 q 233 371 183 -11 q 194 369 208 371 q 132 364 161 364 q 50 394 75 364 q 28 456 28 418 q 113 654 31 517 q 178 701 140 701 q 210 688 194 701 q 225 654 225 674 q 214 621 225 639 q 150 489 164 546 l 150 488 q 161 479 150 479 q 194 483 175 479 q 251 496 246 483 q 319 788 275 644 q 325 800 321 793 q 368 832 342 832 q 385 829 376 832 q 419 783 419 817 q 408 724 419 769 q 374 544 397 685 q 364 492 364 497 q 372 466 364 479 q 381 438 381 453 q 365 404 381 419 q 294 -42 340 381 q 235 -106 289 -106 z "},"5":{"ha":471,"x_min":28,"x_max":443,"o":"m 200 86 q 158 103 174 86 q 143 140 143 121 q 172 192 143 169 q 204 244 204 224 q 178 277 204 261 q 121 303 153 293 q 76 321 96 311 q 28 407 28 346 q 64 519 28 438 q 75 551 75 539 q 71 569 75 561 q 67 586 67 578 q 104 636 72 622 q 364 706 257 697 q 406 700 375 706 q 443 653 443 688 q 367 593 443 601 q 238 571 301 586 q 186 531 201 563 q 146 433 163 483 q 143 424 143 428 q 158 408 143 414 q 276 342 235 386 q 318 249 318 299 q 310 201 318 226 q 236 99 288 140 q 200 86 218 86 z "},"6":{"ha":303,"x_min":28,"x_max":275,"o":"m 171 21 q 113 40 143 21 q 28 290 28 108 q 160 746 28 553 q 225 793 188 793 q 253 785 239 793 q 275 744 275 769 q 272 719 275 733 q 261 692 268 706 q 239 671 254 679 q 231 663 233 668 q 226 655 228 658 q 224 650 225 651 q 140 332 151 500 q 158 299 140 308 q 272 144 269 232 q 239 54 271 94 q 171 21 207 21 z "},"7":{"ha":369,"x_min":28,"x_max":342,"o":"m 85 -160 q 63 -156 75 -160 q 28 -104 28 -143 q 63 6 28 -87 l 94 100 q 76 106 89 104 q 33 153 33 115 q 74 210 33 189 l 126 232 q 147 261 142 238 q 229 606 213 469 q 231 624 231 614 q 190 685 231 685 q 150 665 160 685 q 104 635 131 635 q 71 644 89 635 q 44 693 44 663 q 56 728 44 710 q 135 782 83 765 q 196 792 167 792 q 235 788 217 792 q 342 628 342 757 q 275 294 342 518 q 271 279 271 285 q 288 260 271 272 q 310 217 310 243 q 289 178 310 194 q 251 160 274 165 q 222 129 228 156 q 146 -94 186 18 q 85 -160 126 -160 z "},"8":{"ha":432,"x_min":28,"x_max":404,"o":"m 192 479 l 271 651 q 200 565 224 618 q 186 508 186 533 q 192 479 186 492 m 151 128 q 161 133 156 128 q 203 214 203 164 q 172 254 203 254 l 164 254 q 139 168 142 254 q 151 128 144 128 m 144 13 q 57 61 93 13 q 28 156 28 104 q 92 351 31 264 q 100 376 100 364 q 94 397 100 386 q 71 501 71 450 q 93 604 71 553 q 263 794 149 725 q 325 813 294 813 q 378 794 351 813 q 404 729 404 775 q 349 550 404 665 l 294 435 q 263 356 263 364 q 269 335 263 344 q 315 204 315 274 q 281 95 315 149 q 185 19 247 42 q 144 13 164 13 z "},"9":{"ha":328,"x_min":28,"x_max":300,"o":"m 142 -115 l 128 -114 q 85 -58 85 -101 q 94 -1 85 -46 q 167 453 146 254 l 168 457 l 169 471 l 168 486 q 154 476 158 483 q 103 453 131 453 q 74 457 94 453 q 38 499 54 461 q 28 557 28 526 q 75 719 28 649 q 172 778 114 778 q 192 788 182 778 q 236 808 213 808 q 263 803 243 808 q 296 758 282 799 q 300 719 300 739 q 283 488 299 614 q 142 -115 222 -115 z "},"\u0000":{"ha":0,"x_min":0,"x_max":0,"o":""}," ":{"ha":354,"x_min":0,"x_max":0,"o":""},"!":{"ha":254,"x_min":28,"x_max":226,"o":"m 92 208 q 44 257 51 213 q 39 311 39 283 q 118 858 49 563 q 178 928 132 928 q 197 924 186 928 q 226 879 226 911 l 225 863 q 147 272 178 629 q 143 253 146 261 q 92 208 131 208 m 86 -176 q 45 -160 63 -176 q 28 -122 28 -144 q 42 -89 28 -103 q 76 -74 56 -75 q 116 -90 99 -74 q 135 -126 133 -106 q 121 -161 135 -147 q 86 -176 107 -175 z "},"\"":{"ha":319,"x_min":28,"x_max":292,"o":"m 235 756 q 181 839 181 756 l 181 924 q 183 976 183 950 l 182 1022 q 185 1043 182 1033 q 232 1076 197 1076 q 272 1053 258 1076 q 282 1021 281 1039 q 292 836 292 928 q 283 789 292 813 q 235 756 267 756 m 75 796 q 28 849 32 796 q 35 893 28 858 q 46 953 42 922 q 93 997 51 997 q 144 933 144 996 q 75 796 140 796 z "},"#":{"ha":707,"x_min":28,"x_max":679,"o":"m 289 224 q 408 267 347 246 q 424 274 418 271 q 429 297 429 278 q 415 496 419 492 q 301 446 357 474 q 292 425 292 440 l 288 333 q 283 235 283 253 q 289 224 283 231 m 233 -153 q 189 -125 206 -153 q 168 29 168 -90 l 167 43 q 115 10 133 29 q 78 -10 96 -10 q 53 -3 65 -10 q 28 39 28 13 q 153 157 28 93 q 169 182 169 164 l 175 367 q 174 376 175 375 q 151 365 167 376 q 115 349 140 349 q 92 354 104 349 q 65 396 68 367 q 138 479 68 446 q 190 563 188 499 q 219 744 196 654 q 246 793 224 774 q 281 806 264 806 q 308 797 296 806 q 329 758 329 783 q 325 736 329 749 q 303 572 303 663 q 406 614 356 594 q 414 636 414 618 q 408 840 414 794 q 415 868 408 856 q 457 890 431 890 q 493 875 475 890 q 514 822 513 853 q 531 596 528 606 q 535 576 535 586 q 532 504 532 540 q 535 413 532 458 q 540 321 539 368 q 553 306 540 306 q 626 314 607 314 q 661 301 646 314 q 679 264 679 283 l 676 244 q 571 196 671 217 q 540 165 543 193 q 489 122 535 122 q 449 146 464 122 q 432 157 442 157 l 296 104 q 281 78 281 97 q 286 -87 281 39 q 233 -153 286 -153 z "},"$":{"ha":428,"x_min":28,"x_max":400,"o":"m 271 -74 q 222 -35 233 -74 q 207 72 210 4 q 169 44 185 57 q 96 15 131 15 q 38 47 60 15 q 28 82 28 64 q 42 127 28 108 q 78 146 56 146 l 103 143 q 126 153 117 143 q 197 215 161 185 q 210 244 210 226 l 217 375 q 206 400 217 390 q 157 489 157 442 q 219 592 157 546 q 249 774 242 610 q 301 832 256 831 q 350 769 350 826 l 349 671 q 361 656 349 660 q 399 601 399 642 q 379 557 399 579 q 361 543 369 547 q 339 514 339 535 l 339 507 q 337 489 339 499 q 335 468 335 479 q 363 406 335 435 q 400 321 400 367 q 335 196 400 261 q 321 158 321 181 q 317 -29 321 4 q 271 -74 310 -69 z "},"%":{"ha":547,"x_min":28,"x_max":519,"o":"m 86 -231 q 28 -168 32 -231 q 42 -99 32 -135 q 214 442 122 182 q 471 993 392 993 q 496 986 483 993 q 519 944 519 971 q 517 929 519 936 q 514 918 514 922 q 426 707 465 814 q 157 -107 285 325 q 139 -181 146 -143 q 86 -231 129 -231 m 328 -87 q 310 -85 319 -87 q 268 -10 268 -69 q 293 104 272 44 q 319 139 300 126 q 346 149 332 149 l 356 147 q 425 67 425 119 q 388 -51 425 11 q 328 -87 360 -87 m 168 733 l 158 733 q 129 740 144 733 q 106 764 114 747 q 99 796 99 781 q 129 869 99 833 q 165 886 144 886 q 184 885 169 886 q 217 861 199 883 q 229 821 229 843 q 200 751 228 781 q 168 733 188 738 z "},"&":{"ha":365,"x_min":28,"x_max":338,"o":"m 285 -269 q 247 -254 267 -269 q 192 103 192 -199 l 193 108 q 189 125 193 119 q 160 115 179 125 q 126 111 143 111 q 65 132 96 111 q 28 206 33 153 q 111 396 28 313 q 124 414 119 404 q 100 428 117 422 q 63 489 63 451 q 121 565 63 536 l 188 603 q 206 633 206 611 q 201 715 201 674 q 204 782 201 749 q 206 821 206 794 q 265 940 206 935 q 319 869 319 938 q 314 739 314 804 q 318 626 314 683 l 318 606 q 276 526 318 556 q 244 506 254 508 l 244 500 q 269 442 269 475 q 259 404 269 422 q 208 338 249 386 q 140 229 151 274 q 189 259 164 244 q 236 274 214 274 q 274 263 251 274 q 306 149 306 247 q 333 -196 306 -112 q 338 -217 338 -207 q 321 -253 338 -236 q 285 -269 304 -269 z "},"'":{"ha":172,"x_min":28,"x_max":144,"o":"m 75 836 q 28 889 32 836 q 35 933 28 899 q 46 993 42 963 q 93 1038 51 1038 q 144 974 144 1036 q 75 836 140 836 z "},"(":{"ha":453,"x_min":28,"x_max":425,"o":"m 313 -399 l 300 -399 q 231 -378 264 -399 q 104 -167 150 -322 q 28 379 28 89 q 160 950 28 694 q 251 1074 196 1019 q 353 1124 301 1124 q 401 1106 378 1124 q 425 1061 425 1089 q 375 1011 421 1011 q 363 1013 369 1011 q 351 1015 357 1015 q 282 939 328 1015 q 140 382 140 699 q 156 143 142 268 q 251 -232 183 -101 q 308 -287 279 -287 q 323 -285 315 -287 q 339 -280 331 -282 q 354 -278 347 -278 q 396 -303 381 -278 q 401 -326 401 -315 q 386 -364 401 -346 q 313 -399 356 -394 z "},")":{"ha":453,"x_min":28,"x_max":425,"o":"m 151 -399 q 67 -364 99 -397 q 50 -326 50 -346 q 57 -303 50 -315 q 97 -278 71 -278 q 114 -280 106 -278 q 129 -285 122 -282 q 144 -287 136 -287 q 201 -232 174 -287 q 297 143 269 -101 q 313 382 311 268 q 171 939 313 699 q 101 1015 125 1015 q 90 1013 96 1015 q 78 1011 83 1011 q 28 1061 32 1011 q 51 1106 28 1089 q 100 1124 74 1124 q 201 1074 151 1124 q 293 950 257 1019 q 425 379 425 694 q 349 -167 425 89 q 222 -378 303 -322 q 151 -399 189 -399 z "},"*":{"ha":401,"x_min":28,"x_max":374,"o":"m 324 575 q 200 690 274 575 l 189 704 l 179 696 q 121 664 147 664 q 88 674 104 664 q 60 718 60 693 q 78 761 60 746 q 82 768 82 764 q 28 817 28 783 l 28 822 q 81 874 28 858 q 65 908 78 892 q 47 951 47 926 q 63 986 47 972 q 94 1000 78 1000 q 153 963 132 1000 l 178 921 l 192 906 l 222 951 q 275 979 243 979 q 322 950 310 979 q 328 929 328 939 q 311 894 326 910 q 296 875 296 886 q 310 858 296 868 q 329 817 329 840 l 328 803 q 286 764 326 783 q 344 684 314 721 q 374 626 374 647 q 358 589 374 606 q 324 575 342 575 z "},"+":{"ha":556,"x_min":28,"x_max":526,"o":"m 210 56 q 150 124 150 56 l 156 264 q 143 279 156 279 q 93 271 128 279 l 75 269 q 31 300 44 269 q 28 318 28 310 q 54 361 28 343 q 139 383 71 372 q 167 397 165 389 q 174 446 169 404 q 181 507 179 475 q 190 535 181 522 q 226 553 206 553 q 269 531 251 553 q 282 483 282 511 q 278 415 278 433 q 289 403 278 403 l 296 403 q 457 397 431 403 q 497 382 479 393 q 526 336 526 364 q 474 285 524 288 l 356 292 l 288 290 q 268 269 268 290 l 263 118 q 210 56 263 63 z "},",":{"ha":199,"x_min":28,"x_max":171,"o":"m 76 -165 q 44 -153 61 -165 q 28 -119 28 -140 q 31 -101 28 -111 q 88 -7 51 -50 q 121 8 100 8 q 142 3 132 8 q 171 -49 169 -10 q 167 -58 168 -53 q 100 -158 142 -129 q 76 -165 88 -165 z "},"-":{"ha":363,"x_min":28,"x_max":335,"o":"m 75 251 q 31 281 44 251 q 28 300 28 290 q 51 342 28 324 q 76 354 63 350 q 267 379 199 379 q 335 329 332 379 q 292 276 335 289 q 196 267 257 269 q 89 253 129 261 l 75 251 z "},".":{"ha":163,"x_min":28,"x_max":135,"o":"m 81 -96 q 44 -80 60 -96 q 28 -42 29 -64 q 43 -6 28 -21 q 81 8 58 8 q 119 -7 104 7 q 135 -42 135 -21 q 119 -78 135 -62 q 81 -96 103 -94 z "},"/":{"ha":556,"x_min":28,"x_max":528,"o":"m 90 -464 l 86 -464 q 50 -450 67 -464 q 28 -393 28 -431 q 138 -22 42 -297 q 274 397 193 133 q 422 838 367 700 q 478 894 442 894 q 494 892 486 894 q 528 843 528 878 q 522 817 528 829 q 401 433 460 625 q 233 -90 282 40 q 142 -403 144 -349 q 90 -464 139 -458 z "},":":{"ha":163,"x_min":28,"x_max":135,"o":"m 81 160 q 44 176 60 160 q 28 214 29 192 q 43 249 28 235 q 81 264 58 264 q 119 249 104 263 q 135 214 135 235 q 119 177 135 193 q 81 160 103 161 m 81 393 q 44 409 60 393 q 28 447 29 425 q 43 483 28 468 q 81 497 58 497 q 119 482 104 496 q 135 447 135 468 q 119 410 135 426 q 81 393 103 394 z "},";":{"ha":199,"x_min":28,"x_max":171,"o":"m 110 393 q 74 409 89 393 q 58 447 58 425 q 73 483 58 468 q 111 497 88 497 q 149 482 133 496 q 165 447 164 468 q 149 410 165 426 q 110 393 132 394 m 76 100 q 44 113 61 100 q 28 146 28 125 q 31 164 28 154 q 88 258 51 215 q 121 274 100 274 q 142 268 132 274 q 171 217 169 256 q 167 207 168 213 q 100 107 142 136 q 76 100 88 100 z "},"<":{"ha":536,"x_min":28,"x_max":508,"o":"m 349 178 q 315 182 333 178 q 69 228 92 219 q 28 288 28 249 q 90 371 28 335 q 426 526 201 442 q 458 535 451 535 q 485 526 471 535 q 508 483 508 514 q 464 432 508 451 q 236 324 461 432 q 224 311 228 321 l 321 296 q 413 232 413 285 q 349 178 413 178 z "},"=":{"ha":532,"x_min":28,"x_max":504,"o":"m 86 186 l 78 186 q 31 215 44 186 q 28 233 28 225 q 50 275 28 258 q 89 290 68 288 q 406 319 246 319 q 504 261 504 319 q 464 210 503 221 q 399 206 438 206 q 86 186 214 206 m 164 356 q 119 386 132 356 q 117 404 117 396 q 147 450 117 432 q 168 458 157 456 q 379 489 272 485 q 438 478 418 486 q 468 431 468 461 q 396 375 468 375 l 346 376 q 182 357 263 376 l 164 356 z "},">":{"ha":425,"x_min":28,"x_max":397,"o":"m 82 14 l 74 14 q 28 68 28 24 q 79 156 28 107 q 236 300 111 188 q 281 351 281 339 q 221 394 281 360 q 85 458 106 453 q 43 503 43 469 q 60 536 43 524 q 101 549 78 549 q 310 464 149 549 q 397 356 397 422 q 328 238 397 299 q 196 121 238 158 q 128 39 154 83 q 82 14 113 14 z "},"?":{"ha":450,"x_min":28,"x_max":422,"o":"m 100 -62 q 63 -46 81 -62 q 35 44 35 -15 q 49 150 35 97 q 204 574 101 371 q 282 740 247 656 q 308 882 308 803 q 300 896 307 896 q 263 875 293 896 q 138 674 169 797 l 136 663 q 143 642 136 651 q 154 607 154 624 q 128 563 154 582 q 92 551 108 551 q 47 575 67 551 q 29 646 29 603 q 35 700 29 674 q 208 974 67 871 q 314 1011 261 1011 q 406 949 375 1011 q 422 874 422 908 q 390 710 419 782 q 317 547 357 626 q 153 100 201 317 q 147 46 147 74 q 151 -7 147 33 q 119 -60 151 -46 q 100 -62 110 -62 m 78 -292 q 42 -278 57 -292 q 28 -242 28 -265 q 43 -206 28 -221 q 83 -190 58 -192 q 118 -204 103 -190 q 133 -239 133 -218 q 118 -275 133 -260 q 78 -292 103 -290 z "},"@":{"ha":711,"x_min":28,"x_max":685,"o":"m 381 -151 q 28 264 28 -151 q 124 624 28 453 q 304 811 189 742 q 432 850 368 850 q 604 767 535 850 q 681 574 674 683 q 685 503 685 538 q 632 233 685 364 q 589 157 617 192 q 517 118 556 118 l 494 119 q 411 222 463 122 q 393 203 400 217 q 338 174 371 174 q 261 279 261 181 l 263 311 q 353 510 282 433 q 424 536 385 536 q 500 468 500 536 l 500 428 q 521 263 500 290 q 543 315 536 288 q 572 503 572 408 q 568 567 572 535 q 532 676 564 625 q 436 736 493 736 q 372 719 407 736 q 247 610 296 681 q 140 267 140 454 l 140 243 q 175 74 140 149 q 306 -31 210 -17 q 313 -32 310 -31 q 394 -39 350 -39 q 479 -15 440 -39 q 515 -6 496 -6 q 558 -28 544 -6 q 568 -57 568 -42 q 529 -115 568 -92 q 381 -151 475 -151 z "},"A":{"ha":422,"x_min":28,"x_max":394,"o":"m 203 632 q 232 636 218 632 q 267 644 258 640 q 276 671 276 647 q 282 864 278 764 q 279 890 282 879 q 225 761 251 844 q 194 632 199 678 l 203 632 m 324 -206 q 271 -136 271 -201 l 269 153 q 271 432 269 293 l 271 535 q 183 525 228 529 q 169 507 169 522 q 135 79 135 264 q 138 48 135 63 q 142 24 142 33 q 94 -22 142 -17 q 40 13 51 -22 q 28 176 28 49 q 36 344 28 261 q 181 949 69 731 q 310 1074 243 1074 q 341 1067 321 1074 q 376 1029 361 1061 q 392 963 390 997 q 394 854 394 908 q 392 736 394 801 q 381 158 381 440 l 382 -132 q 374 -174 382 -153 q 324 -206 358 -206 z "},"B":{"ha":646,"x_min":28,"x_max":617,"o":"m 201 -251 q 39 -167 83 -251 q 28 -122 28 -143 q 51 -64 28 -90 q 94 -44 72 -44 q 113 -47 103 -44 q 143 -97 143 -60 l 142 -108 q 201 -137 142 -137 q 317 -81 250 -137 q 497 258 468 57 q 504 349 504 304 q 331 668 504 572 q 322 672 326 671 q 311 676 317 674 q 301 679 306 679 q 289 667 292 679 q 239 440 239 526 l 246 149 q 242 96 246 122 q 186 42 232 42 q 125 85 144 42 q 110 258 110 126 q 119 415 110 336 q 125 538 125 476 l 122 626 q 150 976 122 801 q 186 1032 153 1014 q 210 1038 197 1038 q 242 1024 226 1038 q 258 990 258 1011 q 256 972 258 982 q 246 907 246 940 l 242 849 l 249 847 q 422 1013 344 1013 q 492 961 471 1013 q 497 926 497 944 q 494 901 497 914 q 410 757 475 824 q 414 749 411 751 q 419 746 417 747 q 424 743 422 744 q 615 404 601 618 l 617 344 q 407 -149 617 58 q 201 -251 300 -251 z "},"C":{"ha":453,"x_min":28,"x_max":425,"o":"m 258 -97 q 215 -89 239 -97 q 135 -22 165 -67 q 65 126 86 44 q 28 401 28 261 q 76 751 28 590 q 160 922 104 846 q 292 999 217 999 q 388 932 350 999 q 425 728 425 853 q 424 685 425 706 q 372 621 418 621 q 322 679 322 621 l 322 703 q 294 864 322 794 q 282 882 289 882 q 240 840 268 882 q 172 676 192 765 q 140 415 140 546 q 167 178 140 297 q 213 63 181 117 q 249 21 225 39 q 261 44 258 33 q 265 54 263 50 q 315 89 283 89 q 335 86 325 89 q 372 33 372 72 l 369 17 q 258 -97 339 -97 z "},"D":{"ha":539,"x_min":28,"x_max":511,"o":"m 251 243 q 321 317 293 281 q 399 558 399 418 q 329 850 399 714 q 279 922 311 890 q 268 931 274 931 l 261 929 q 250 554 250 763 l 251 243 m 197 -37 q 160 -19 176 -37 q 143 -10 153 -10 q 129 -15 138 -10 q 81 -31 108 -31 q 32 4 46 -31 q 28 28 28 17 q 72 90 28 64 l 89 100 q 143 163 143 128 q 140 192 143 176 q 138 638 138 207 q 164 978 138 808 q 242 1057 181 1057 q 351 1007 297 1057 q 444 874 411 951 q 511 571 511 717 q 385 211 511 351 q 272 97 332 151 q 254 58 254 83 l 254 44 q 197 -37 254 -37 z "},"E":{"ha":376,"x_min":28,"x_max":349,"o":"m 240 -67 q 165 -58 203 -67 q 69 25 94 -43 q 31 339 31 131 q 28 476 28 408 q 43 808 28 647 q 74 1013 58 961 q 121 1049 88 1049 q 138 1045 128 1049 q 160 1042 149 1042 q 179 1044 169 1042 q 242 1053 225 1053 q 303 1006 299 1053 q 215 943 303 949 q 169 938 185 943 q 163 915 163 933 q 142 533 142 675 q 147 518 142 518 l 213 532 q 265 485 265 532 q 204 425 265 440 q 158 415 176 418 q 140 397 140 413 q 164 104 140 219 q 183 58 169 69 q 242 46 197 46 l 293 50 q 349 -4 349 44 q 240 -67 349 -67 z "},"F":{"ha":376,"x_min":28,"x_max":510,"o":"m 168 -94 q 113 -53 129 -94 q 106 18 106 -33 q 114 199 106 108 q 117 333 117 246 q 110 359 117 347 q 104 382 104 371 q 113 410 104 396 q 121 442 121 424 q 151 875 143 810 l 150 894 q 104 885 131 894 q 75 881 89 881 q 28 929 33 883 q 71 979 28 963 q 401 1061 232 1036 q 429 1064 415 1064 q 510 1013 503 1064 q 414 949 510 957 q 282 926 347 939 q 258 901 260 925 q 236 496 257 818 l 236 486 q 249 471 236 471 l 274 474 q 296 471 285 474 q 333 421 333 458 q 301 375 333 389 q 257 367 282 367 q 237 362 244 365 q 229 336 229 358 q 225 185 229 238 q 218 21 219 103 q 221 -28 218 -4 l 221 -36 q 168 -94 221 -90 z "},"G":{"ha":461,"x_min":28,"x_max":433,"o":"m 211 -117 q 149 -92 178 -117 q 88 -4 108 -54 q 38 174 49 83 q 28 353 28 265 q 129 900 28 632 q 225 1039 165 997 q 286 1057 257 1057 q 364 1019 328 1057 q 411 864 411 965 q 399 756 411 810 q 381 719 396 735 q 346 704 365 704 q 328 707 338 704 q 297 751 297 721 l 299 768 q 304 836 304 786 q 283 940 304 907 q 246 885 257 914 q 188 713 207 801 q 140 307 142 531 q 179 69 140 185 q 192 38 185 53 q 200 29 192 32 q 210 81 208 54 l 231 315 q 213 339 231 332 q 186 381 186 349 q 229 429 186 422 q 357 443 293 438 q 433 389 432 443 q 397 342 433 357 q 368 336 383 336 l 361 336 q 343 318 343 336 q 304 -26 321 28 q 211 -117 282 -111 z "},"H":{"ha":483,"x_min":28,"x_max":456,"o":"m 331 -311 q 271 -235 271 -311 q 281 164 271 -186 l 281 197 q 274 199 278 199 q 256 193 267 199 q 238 185 246 188 q 163 152 168 157 q 158 135 158 147 q 165 36 158 113 l 167 17 q 114 -50 167 -50 q 56 3 61 -46 q 46 114 49 58 q 28 669 29 392 q 42 914 28 793 q 51 990 49 983 q 100 1025 65 1025 q 147 983 138 1022 q 149 949 149 972 q 140 635 140 792 q 157 272 140 272 q 228 287 171 272 q 286 315 286 301 q 306 704 297 603 q 351 979 317 844 q 406 1039 363 1039 q 456 988 456 1039 q 447 940 456 974 q 408 558 419 803 q 385 -237 385 -72 q 331 -311 385 -306 z "},"I":{"ha":215,"x_min":28,"x_max":188,"o":"m 81 -72 q 29 -17 35 -68 l 28 24 q 35 142 28 51 q 85 904 67 761 l 86 925 l 85 932 q 136 988 85 982 q 178 963 161 988 q 188 921 188 944 q 160 357 171 532 q 142 22 149 189 l 138 -24 q 81 -72 125 -72 z "},"J":{"ha":504,"x_min":28,"x_max":475,"o":"m 217 -297 q 181 -289 206 -297 q 138 -219 149 -281 q 149 -185 138 -201 q 186 -169 161 -169 q 294 63 235 -169 q 357 468 347 263 q 363 576 363 503 q 317 935 363 843 q 304 947 310 946 q 268 926 293 947 q 142 763 190 857 q 135 736 135 750 l 136 728 q 86 674 136 674 q 33 711 47 674 q 28 735 28 722 q 40 786 28 757 q 190 1007 89 915 q 307 1061 246 1061 q 388 1025 353 1061 q 426 964 414 999 q 475 643 475 840 l 475 624 q 321 -201 475 153 q 272 -274 304 -243 q 217 -297 244 -297 z "},"K":{"ha":482,"x_min":38,"x_max":540,"o":"m 100 -231 q 40 -144 40 -231 l 38 154 q 42 549 38 375 q 128 1019 54 1019 q 179 953 179 1018 q 157 376 161 654 l 158 367 q 329 554 200 424 q 490 675 446 672 q 536 644 522 675 q 540 624 540 633 q 524 590 540 606 q 307 364 463 538 q 210 233 210 254 q 229 210 210 222 q 389 128 304 161 q 463 58 463 100 q 458 35 463 47 q 411 4 443 4 q 388 8 400 4 q 181 108 279 46 l 157 119 q 153 -174 154 115 q 100 -231 150 -226 z "},"L":{"ha":429,"x_min":28,"x_max":521,"o":"m 85 -115 q 33 -87 47 -115 q 28 -65 28 -76 q 61 -14 28 -32 q 71 1 71 -8 l 69 94 q 89 636 69 208 q 114 922 94 776 l 114 933 q 113 950 114 943 q 111 964 111 957 q 117 989 111 976 q 163 1021 131 1021 q 196 1007 179 1021 q 219 957 219 988 q 213 828 219 906 q 181 56 193 528 q 185 26 181 40 l 285 49 q 436 69 381 69 q 485 63 461 69 q 521 13 521 44 q 478 -36 521 -26 q 435 -42 456 -40 q 153 -93 310 -56 q 113 -106 125 -97 q 85 -115 100 -115 z "},"M":{"ha":597,"x_min":28,"x_max":569,"o":"m 518 -107 q 497 -103 508 -107 q 451 -53 463 -89 q 429 61 435 3 q 400 539 400 299 l 400 581 q 397 799 399 785 l 390 799 l 333 672 q 288 585 303 603 q 231 553 261 553 q 175 575 206 553 q 164 508 164 544 q 139 122 139 315 l 139 86 q 142 58 139 69 q 152 34 144 46 q 160 6 160 22 q 126 -53 160 -33 q 103 -57 114 -57 q 31 101 31 -57 q 28 201 28 151 q 43 450 28 326 q 93 778 58 614 q 105 817 97 799 q 126 847 113 836 q 161 858 139 858 q 233 772 221 858 q 242 750 239 753 q 254 771 250 756 q 338 938 297 871 q 426 1004 382 1004 q 455 999 433 1004 q 493 951 476 994 q 513 661 513 892 l 511 547 q 538 90 511 322 q 565 -35 543 21 q 569 -57 569 -46 q 554 -91 569 -75 q 518 -107 539 -107 z "},"N":{"ha":519,"x_min":28,"x_max":493,"o":"m 160 -162 q 128 -151 144 -162 q 99 -104 103 -133 l 92 -57 q 29 551 38 225 l 28 608 q 42 775 28 726 q 99 818 54 818 q 171 747 154 818 l 194 675 q 371 239 264 454 q 378 250 378 242 q 346 1178 372 307 q 400 1250 346 1244 q 458 1171 458 1250 l 460 1164 q 493 154 476 558 q 479 58 493 85 q 417 22 461 22 q 160 432 322 22 q 143 453 156 447 q 206 -97 190 -54 q 208 -115 208 -107 q 189 -153 208 -137 q 160 -162 175 -162 z "},"O":{"ha":432,"x_min":28,"x_max":404,"o":"m 218 97 q 239 144 239 129 q 292 600 292 318 q 236 965 292 965 q 161 875 197 965 q 183 853 174 868 q 199 793 199 824 q 174 742 199 756 q 156 715 158 735 q 140 513 140 614 q 174 215 140 363 q 218 97 186 156 m 219 -32 q 149 2 179 -32 q 103 75 118 36 q 28 499 28 246 q 82 847 28 725 q 65 882 65 863 q 68 899 65 890 q 181 1063 97 1021 q 251 1083 221 1083 q 307 1060 285 1083 q 385 874 367 992 q 404 611 404 756 q 374 215 404 385 q 219 -32 325 -32 z "},"P":{"ha":382,"x_min":13,"x_max":528,"o":"m 225 515 q 239 535 233 522 q 394 831 344 706 q 415 910 415 876 q 408 935 415 928 q 381 944 401 943 q 285 925 331 942 q 250 889 251 915 l 221 528 q 225 515 221 519 m 114 -162 l 99 -161 q 63 -110 63 -150 l 63 -101 q 81 111 75 4 q 88 196 83 154 l 90 250 q 82 278 90 265 q 74 304 74 292 q 85 332 74 318 q 99 374 99 351 q 113 579 107 481 q 135 833 125 763 l 133 840 q 111 819 119 839 q 68 789 94 789 q 19 821 33 789 q 13 847 13 833 q 140 978 13 897 q 169 1004 158 988 q 213 1031 185 1031 l 232 1029 q 257 1035 244 1029 q 371 1056 313 1056 q 500 1003 458 1056 q 528 914 528 967 q 488 760 528 847 q 271 378 396 558 q 219 313 247 343 q 204 274 206 296 l 181 -53 q 114 -162 174 -162 z "},"Q":{"ha":492,"x_min":24,"x_max":460,"o":"m 164 214 l 171 250 q 188 285 175 269 q 229 307 206 307 q 245 306 231 307 q 276 279 260 306 q 279 272 278 276 q 288 261 281 267 q 294 269 293 261 q 342 494 342 361 q 321 715 342 569 q 313 726 319 726 q 301 722 308 726 q 236 658 261 699 q 143 339 143 521 q 164 214 143 235 m 254 -306 q 206 -279 229 -306 q 149 -4 149 -204 l 149 21 q 124 68 149 56 q 54 156 76 93 q 24 318 24 235 q 101 664 24 508 q 206 793 139 740 q 281 832 240 819 q 296 844 296 835 q 286 879 296 853 q 243 981 274 942 q 232 1013 232 997 q 243 1044 232 1029 q 289 1067 263 1067 q 386 963 351 1067 q 449 651 433 810 q 460 500 460 575 q 447 350 460 414 q 349 138 424 229 q 282 78 319 101 q 265 49 265 67 l 267 17 q 301 -228 271 -137 q 307 -254 307 -242 q 279 -299 307 -283 q 254 -306 267 -306 z "},"R":{"ha":507,"x_min":24,"x_max":651,"o":"m 232 468 q 246 478 236 468 q 458 690 357 579 q 539 814 539 775 q 496 829 539 829 q 256 750 385 821 q 244 740 247 746 q 228 479 233 715 q 232 468 228 472 m 146 -324 q 90 -254 90 -319 l 106 199 l 107 215 q 97 228 107 228 l 79 229 q 31 285 31 236 q 54 326 31 310 l 99 354 q 121 629 115 363 l 115 631 q 107 628 113 631 q 75 619 90 619 q 40 638 56 619 q 24 676 24 656 q 121 796 24 719 q 139 826 138 807 q 153 910 144 868 l 154 932 l 151 963 q 160 991 151 976 q 183 1013 168 1006 q 208 1021 197 1021 q 261 949 261 1021 l 260 926 q 256 882 256 901 l 263 882 q 285 890 267 882 q 500 940 399 940 q 636 878 599 940 q 651 818 651 851 q 649 786 651 803 q 590 672 632 722 q 288 364 496 553 q 271 343 271 350 q 281 319 271 335 q 504 -10 350 194 q 532 -67 532 -42 q 517 -100 532 -86 q 485 -114 501 -114 q 457 -106 471 -114 q 263 142 378 -50 l 225 204 q 219 203 221 204 l 201 -279 q 146 -324 189 -324 z "},"S":{"ha":507,"x_min":-10,"x_max":471,"o":"m 88 -178 q -10 -54 -10 -178 q 4 19 -10 -17 q 50 54 18 54 q 100 1 97 54 l 100 -57 q 144 -26 124 -47 q 315 229 260 81 q 360 414 360 333 q 251 542 360 518 q 167 550 228 547 q 128 557 151 550 q 65 640 69 579 q 78 713 65 678 q 214 974 126 854 q 288 1049 244 1017 q 367 1078 324 1078 q 429 1050 404 1078 q 443 1014 443 1032 q 436 989 443 1001 q 399 965 421 965 q 382 968 390 965 q 368 971 374 971 q 335 950 356 971 q 192 696 251 849 q 183 669 183 676 q 211 660 183 660 q 390 597 311 658 q 471 411 471 531 q 453 288 471 349 q 236 -96 397 67 q 88 -178 154 -178 z "},"T":{"ha":461,"x_min":11,"x_max":786,"o":"m 290 -164 q 242 -135 260 -164 q 221 17 221 -100 q 244 538 232 372 q 275 828 244 624 q 114 807 188 824 l 90 801 q 71 797 82 797 q 15 833 31 797 q 11 853 11 844 q 281 946 11 911 q 313 959 300 946 q 342 972 326 972 q 367 965 353 972 q 400 958 381 958 q 565 967 485 967 q 721 953 656 967 q 786 889 786 939 q 724 844 783 844 q 565 853 590 853 q 426 846 496 853 q 413 844 415 846 q 393 842 400 843 q 385 817 386 840 q 351 433 361 626 q 335 -8 335 176 l 336 -107 q 290 -164 336 -164 z "},"U":{"ha":469,"x_min":35,"x_max":486,"o":"m 232 -65 q 149 -31 188 -65 q 90 63 108 10 q 35 465 35 218 q 94 893 35 718 q 149 940 115 940 q 174 933 161 940 q 203 883 203 918 q 197 863 203 874 q 165 733 171 800 q 149 468 149 601 l 149 401 q 185 132 149 264 q 209 74 193 100 q 236 47 225 47 q 256 63 246 47 q 379 713 379 347 q 361 960 379 843 q 377 1001 361 986 q 413 1017 393 1015 q 447 1001 432 1015 q 486 782 486 961 q 447 353 486 590 q 382 86 419 181 q 232 -65 329 -62 z "},"V":{"ha":396,"x_min":13,"x_max":644,"o":"m 150 -132 q 129 -128 139 -132 q 92 -78 96 -114 q 46 293 81 42 q 14 633 14 503 l 13 717 q 39 767 13 751 q 64 772 51 772 q 84 768 71 772 q 108 742 97 764 q 119 690 119 719 q 168 231 129 461 q 181 253 176 236 q 442 947 290 610 q 567 1135 503 1090 q 596 1143 581 1143 q 640 1108 628 1143 q 644 1092 644 1100 q 631 1056 643 1075 q 468 726 549 933 q 232 7 310 339 l 217 -58 q 150 -132 199 -132 z "},"W":{"ha":800,"x_min":24,"x_max":794,"o":"m 664 -90 q 578 -18 613 -90 q 411 644 458 226 q 403 678 408 663 q 386 654 392 667 q 385 650 385 653 q 164 40 225 367 q 97 -50 153 -50 q 74 -47 92 -50 q 44 -11 57 -43 q 36 31 38 8 q 32 417 32 104 q 24 843 28 797 q 41 890 24 869 q 81 911 58 911 q 99 909 83 911 q 128 879 114 907 q 136 826 136 861 l 132 399 q 135 383 132 383 q 149 407 139 383 q 340 790 236 646 q 422 843 379 843 q 451 838 431 843 q 490 800 471 833 q 513 715 508 760 l 547 485 q 622 167 569 322 q 624 163 624 165 q 638 138 628 146 l 644 349 q 679 1040 651 694 q 740 1131 685 1131 q 794 1074 792 1131 q 792 1031 794 1053 q 751 158 760 596 q 728 -44 749 7 q 664 -90 706 -90 z "},"X":{"ha":454,"x_min":32,"x_max":576,"o":"m 494 -469 q 451 -442 467 -469 q 433 -389 433 -406 q 315 19 378 -183 q 264 193 289 106 l 254 219 q 158 36 186 79 q 94 0 136 0 q 38 42 51 0 q 32 75 32 58 q 75 143 32 135 q 93 151 88 144 q 186 344 108 168 q 201 393 201 376 q 199 414 201 403 q 103 772 144 592 q 60 1015 60 968 q 110 1072 63 1069 q 160 1029 150 1071 q 179 938 167 983 q 271 568 244 647 l 333 717 q 414 910 375 815 q 467 1032 453 1004 q 529 1075 486 1075 q 576 1032 571 1075 q 567 996 576 1018 q 338 415 460 703 q 328 378 328 397 q 335 347 328 363 q 547 -406 547 -356 q 494 -469 547 -469 z "},"Y":{"ha":426,"x_min":43,"x_max":519,"o":"m 306 -342 q 267 -325 285 -342 q 240 -265 244 -299 q 235 -167 235 -217 q 292 460 243 147 l 292 471 q 283 467 286 471 q 276 456 281 464 q 252 425 264 442 q 225 390 240 408 q 136 339 188 339 q 71 379 97 339 q 49 449 51 411 q 43 549 43 499 q 104 888 43 722 q 165 944 122 944 q 217 875 217 944 q 199 829 217 847 q 190 808 190 819 q 156 533 156 674 l 156 506 q 163 493 156 500 q 182 519 174 503 q 413 903 276 663 q 463 935 429 935 q 498 922 479 935 q 519 881 517 908 q 510 836 519 857 q 376 250 410 582 q 347 -174 347 4 q 348 -216 347 -194 q 360 -258 349 -237 q 367 -287 367 -274 q 345 -326 367 -311 q 306 -342 324 -342 z "},"Z":{"ha":408,"x_min":8,"x_max":725,"o":"m 672 -317 q 632 -307 657 -317 q 167 -149 450 -236 q 8 -3 8 -108 q 71 175 8 68 l 300 586 q 424 838 367 708 q 439 886 436 863 q 383 867 408 881 q 196 751 215 790 q 147 721 182 721 q 110 732 129 721 q 85 774 85 746 q 119 835 85 806 q 351 976 226 921 q 463 1003 404 1001 q 557 903 556 996 q 304 340 551 801 q 140 1 140 43 q 175 -24 140 -11 q 333 -83 276 -68 q 622 -182 478 -129 q 725 -267 725 -217 q 712 -301 725 -285 q 672 -317 699 -317 z "},"[":{"ha":358,"x_min":28,"x_max":331,"o":"m 114 -212 q 38 -140 49 -212 q 28 39 28 -51 q 40 283 31 161 q 54 550 49 417 q 96 997 65 775 q 165 1104 106 1094 q 279 1121 258 1121 q 315 1108 299 1121 q 331 1072 331 1096 q 292 1024 331 1036 q 228 1010 261 1014 q 204 985 204 1007 l 182 768 q 161 418 169 671 q 140 38 140 96 q 144 -68 140 -15 q 147 -90 146 -78 q 149 -103 147 -101 q 163 -106 151 -106 q 203 -103 185 -103 q 293 -157 289 -103 q 250 -207 293 -192 q 192 -210 233 -210 q 138 -211 151 -210 q 114 -212 124 -212 z "},"\\":{"ha":556,"x_min":28,"x_max":528,"o":"m 469 -464 q 414 -406 417 -462 q 322 -90 411 -349 q 154 433 274 40 q 33 817 96 625 q 28 843 28 829 q 61 892 28 878 q 78 894 69 894 q 133 838 115 894 q 282 397 189 700 q 418 -22 364 133 q 528 -393 514 -297 q 506 -450 528 -431 q 469 -464 489 -464 z "},"]":{"ha":358,"x_min":28,"x_max":331,"o":"m 246 -212 q 222 -211 235 -212 q 167 -210 208 -210 q 108 -207 125 -210 q 65 -157 65 -192 q 157 -103 69 -103 q 196 -106 174 -103 q 209 -103 207 -106 q 212 -90 211 -101 q 214 -68 213 -78 q 218 38 218 -15 q 199 418 218 96 q 176 768 189 671 l 154 985 q 131 1010 154 1007 q 67 1024 97 1014 q 28 1072 28 1036 q 44 1108 28 1096 q 79 1121 60 1121 q 193 1104 101 1121 q 263 997 254 1094 q 304 550 293 775 q 318 283 310 417 q 331 39 328 161 q 321 -140 331 -51 q 246 -212 311 -212 z "},"^":{"ha":358,"x_min":28,"x_max":331,"o":"m 279 788 q 249 796 265 788 q 189 929 218 814 q 185 945 186 936 q 175 967 185 954 q 126 833 149 899 q 78 794 111 794 q 28 850 29 794 q 33 878 28 864 q 81 1042 61 958 q 111 1136 93 1089 q 144 1182 121 1163 q 185 1194 165 1194 q 238 1164 213 1194 q 274 1051 256 1136 q 321 883 294 967 q 331 840 331 860 q 297 790 331 804 q 279 788 288 788 z "},"_":{"ha":765,"x_min":28,"x_max":738,"o":"m 89 -117 q 47 -103 65 -117 q 28 -61 28 -89 q 100 -6 28 -15 q 175 -1 126 -1 q 597 -7 379 -7 l 674 -6 q 738 -54 738 -6 q 697 -99 738 -89 q 89 -117 668 -103 z "},"a":{"ha":442,"x_min":28,"x_max":414,"o":"m 351 22 l 340 24 q 258 189 265 40 q 251 264 257 192 l 247 264 q 196 172 221 221 q 103 96 154 96 q 82 99 93 96 q 28 193 28 119 q 32 232 28 213 q 97 422 47 333 q 160 496 122 465 q 225 521 189 521 q 240 519 233 521 q 249 518 246 518 q 264 526 257 518 q 303 544 281 544 q 326 540 314 544 q 369 482 365 524 l 369 457 q 364 339 364 440 q 392 121 364 140 q 414 78 414 100 q 408 56 414 67 q 351 22 390 22 z "},"b":{"ha":418,"x_min":28,"x_max":390,"o":"m 189 243 q 233 305 211 267 q 258 367 254 343 q 189 243 210 311 m 97 17 q 42 42 65 17 q 28 81 28 61 q 49 122 28 103 q 60 136 60 129 q 54 146 60 140 q 33 529 33 179 q 39 790 33 660 q 99 1107 46 951 q 154 1165 118 1165 q 204 1114 204 1161 q 199 1092 204 1103 q 147 558 147 926 q 149 417 147 425 q 171 438 163 426 q 311 525 246 525 q 390 428 389 525 q 372 336 389 381 q 189 61 308 181 q 97 17 147 17 z "},"c":{"ha":457,"x_min":28,"x_max":429,"o":"m 214 189 q 125 203 156 189 l 119 204 q 28 325 28 244 q 44 394 28 358 q 115 493 69 450 q 193 528 150 528 q 263 485 236 528 q 274 433 274 463 q 244 385 274 400 q 222 379 233 379 q 190 394 204 379 q 182 407 183 401 q 142 332 142 358 q 157 311 142 318 q 210 301 176 301 q 321 326 257 301 q 382 344 367 344 q 422 321 407 344 q 429 294 429 307 q 399 246 429 264 q 214 189 311 189 z "},"d":{"ha":492,"x_min":28,"x_max":464,"o":"m 413 -76 q 281 279 324 -76 l 263 399 q 196 189 218 242 q 107 104 160 104 q 78 108 100 104 q 39 157 57 113 q 28 240 28 186 q 53 404 28 324 q 78 457 60 433 q 132 485 100 485 q 149 483 140 485 q 161 482 157 482 q 263 836 169 482 q 292 943 276 890 q 349 989 303 989 q 387 973 371 989 q 403 932 403 957 l 394 874 q 369 607 369 732 q 374 497 369 553 q 457 7 394 144 q 464 -25 464 -15 q 442 -67 464 -51 q 413 -76 428 -76 z "},"e":{"ha":349,"x_min":39,"x_max":303,"o":"m 224 79 q 140 122 176 79 q 46 349 78 193 q 39 403 39 390 q 110 582 39 524 q 181 610 143 610 l 194 610 q 251 578 225 610 q 278 497 278 546 q 251 393 278 447 q 186 315 228 344 q 178 303 178 311 q 194 254 178 294 q 238 199 218 199 l 250 199 q 288 183 272 199 q 303 146 303 168 q 285 106 303 125 q 224 79 261 79 z "},"f":{"ha":465,"x_min":28,"x_max":439,"o":"m 164 -465 q 124 -443 140 -465 q 97 -217 101 -407 l 97 -96 q 104 279 97 92 l 107 322 l 106 344 q 96 347 101 347 l 88 346 q 28 397 28 346 q 67 443 28 435 q 125 507 122 450 q 201 764 140 656 q 253 794 224 794 q 286 783 271 794 q 306 743 306 767 q 288 697 306 718 q 274 676 278 689 q 238 499 249 592 q 264 503 251 500 q 351 515 314 515 q 439 456 439 515 q 385 406 439 410 q 231 381 267 399 q 221 353 221 376 q 210 -96 210 129 q 219 -401 210 -257 q 164 -465 219 -465 z "},"g":{"ha":421,"x_min":-15,"x_max":349,"o":"m 74 -503 q 33 -493 61 -503 q -10 -425 6 -483 q -15 -392 -15 -410 q 38 -332 -15 -332 q 78 -353 61 -332 l 89 -369 q 126 -314 113 -342 q 235 215 235 -119 l 233 314 q 232 330 232 325 q 226 335 232 335 q 217 318 219 328 q 210 301 217 314 q 172 221 190 254 q 101 174 146 174 q 54 201 74 174 q 40 246 40 222 q 135 525 51 397 q 214 576 168 576 q 277 542 246 576 q 322 468 308 508 q 349 206 349 386 q 203 -404 349 -178 q 74 -503 143 -503 z "},"h":{"ha":360,"x_min":28,"x_max":333,"o":"m 107 94 q 53 144 64 97 q 39 253 42 197 l 38 282 q 28 525 28 404 q 89 1131 28 863 q 144 1192 100 1192 q 194 1138 194 1186 q 185 1074 194 1125 q 140 451 142 789 q 146 425 140 439 q 178 431 163 431 q 257 390 219 431 q 300 331 283 363 q 333 243 333 264 q 313 204 333 221 q 282 194 297 194 q 250 206 267 194 q 210 258 219 229 q 189 289 203 275 q 176 228 179 258 q 163 140 167 151 q 107 94 144 94 z "},"i":{"ha":253,"x_min":61,"x_max":226,"o":"m 131 78 l 126 78 q 76 110 93 78 q 61 251 61 147 l 64 318 q 79 449 65 383 q 143 497 89 492 q 175 485 161 497 q 189 454 189 472 q 186 439 189 447 q 172 349 172 393 l 172 310 l 171 279 q 172 235 172 269 l 179 153 q 131 78 179 85 m 176 617 q 139 633 156 617 q 121 674 122 650 q 136 707 122 693 q 171 721 150 721 q 209 703 192 721 q 226 664 226 686 q 211 630 225 643 q 176 617 197 617 z "},"j":{"ha":365,"x_min":-35,"x_max":275,"o":"m 25 -512 q -35 -456 -29 -511 q 1 -406 -35 -418 q 53 -362 38 -393 q 122 -174 104 -274 q 163 226 163 14 q 139 483 163 419 q 136 506 136 494 q 163 549 136 535 q 186 554 175 554 q 231 525 211 554 q 275 239 275 432 q 161 -400 269 -189 q 101 -479 139 -446 q 25 -512 69 -510 m 188 671 q 153 685 167 672 q 139 719 139 699 q 156 759 139 743 q 197 776 172 775 q 261 721 258 772 q 188 671 258 671 z "},"k":{"ha":339,"x_min":28,"x_max":310,"o":"m 92 -26 q 44 13 60 -26 q 28 350 28 61 q 32 558 28 454 q 93 1029 36 831 q 97 1042 94 1036 q 139 1075 113 1075 q 182 1047 168 1075 q 188 1026 188 1036 q 185 1011 188 1018 q 160 869 167 953 q 132 461 132 671 q 224 560 139 463 q 264 586 240 586 q 292 576 278 586 q 308 542 308 563 q 190 369 308 507 q 168 317 168 344 q 279 186 168 260 q 310 138 310 163 q 304 114 310 126 q 264 90 290 90 q 138 161 226 90 q 133 158 133 160 q 132 138 132 156 q 142 38 135 82 l 142 26 q 92 -26 142 -21 z "},"l":{"ha":296,"x_min":78,"x_max":297,"o":"m 218 -62 q 135 -31 176 -62 q 78 282 78 38 q 124 925 78 663 q 126 976 126 950 q 175 1031 129 1031 q 229 956 229 1031 q 215 801 228 894 q 190 292 190 594 q 194 67 190 136 q 222 54 206 54 q 235 56 228 54 q 249 57 242 57 q 289 33 274 57 q 297 6 297 19 q 286 -28 297 -11 q 218 -62 260 -62 z "},"m":{"ha":679,"x_min":28,"x_max":653,"o":"m 85 46 q 68 49 76 46 q 28 110 28 61 l 33 210 q 60 486 44 439 q 108 522 75 522 q 133 515 121 522 q 157 474 157 500 l 156 446 q 200 454 176 454 q 258 413 236 454 q 275 369 275 379 q 288 386 282 374 l 290 390 q 454 561 367 561 q 525 518 494 561 q 551 453 544 488 l 586 314 q 640 146 615 175 q 653 114 653 131 q 644 82 653 97 q 597 58 626 58 q 533 101 554 58 q 474 299 510 140 l 454 382 q 453 392 453 386 q 440 425 450 407 q 339 213 390 361 l 314 150 q 251 104 293 104 q 226 110 243 104 q 185 217 192 119 l 183 235 q 172 221 174 232 q 128 65 150 94 q 85 46 108 46 z "},"n":{"ha":425,"x_min":28,"x_max":397,"o":"m 343 46 q 257 188 271 46 l 239 339 q 226 326 231 338 q 225 322 226 324 l 176 201 q 99 129 151 129 l 76 132 q 28 278 28 139 q 46 446 28 363 q 69 490 51 471 q 107 508 86 508 q 124 508 110 508 q 154 482 138 507 q 163 465 160 474 q 178 486 174 475 q 181 492 179 490 q 183 496 183 494 q 214 540 197 519 q 268 567 238 567 q 336 510 325 561 q 346 405 339 493 q 364 226 353 317 q 375 166 372 186 q 388 128 378 146 q 397 96 397 111 q 382 62 397 78 q 343 46 367 46 z "},"o":{"ha":265,"x_min":38,"x_max":249,"o":"m 133 164 q 103 167 126 164 q 56 211 79 171 q 38 294 38 251 l 38 311 q 67 451 38 383 q 151 507 89 507 q 224 455 200 507 q 249 346 249 403 q 193 190 249 244 q 133 164 165 164 z "},"p":{"ha":486,"x_min":18,"x_max":450,"o":"m 246 331 q 293 365 267 338 q 326 418 319 392 q 277 385 299 411 q 246 331 256 360 m 124 -621 l 114 -621 q 18 -272 18 -621 q 47 42 18 -108 q 50 75 50 58 l 47 218 q 61 490 47 381 q 67 533 63 521 q 114 569 79 569 q 169 496 169 569 q 166 463 169 481 q 163 403 163 446 q 179 422 175 413 q 247 502 196 456 q 356 549 297 549 q 411 529 388 549 q 450 443 450 500 q 400 322 450 378 q 204 168 322 229 q 183 140 188 160 q 165 10 165 76 q 172 -150 165 -26 q 186 -486 186 -342 q 179 -575 186 -547 q 124 -621 167 -615 z "},"q":{"ha":431,"x_min":24,"x_max":399,"o":"m 288 -651 q 244 -639 261 -651 q 204 -469 204 -601 l 203 -342 q 239 254 203 -11 l 239 265 l 235 265 q 161 125 186 163 q 89 78 126 78 q 61 83 81 78 q 28 126 42 89 q 24 164 24 144 q 67 404 24 288 q 118 485 85 449 q 190 525 151 525 q 218 521 203 525 q 235 531 231 521 l 282 636 q 339 683 303 683 q 399 629 392 676 q 354 319 399 594 q 307 -357 307 15 q 325 -571 307 -547 q 336 -604 336 -589 q 321 -637 336 -624 q 288 -651 306 -651 z "},"r":{"ha":429,"x_min":33,"x_max":550,"o":"m 101 99 q 42 176 42 99 q 33 318 33 217 q 65 572 33 489 q 122 608 79 608 q 163 589 146 608 q 172 560 172 575 q 163 532 172 546 q 153 501 153 518 l 154 490 q 374 728 268 639 q 503 793 450 793 q 544 765 532 793 q 550 743 550 754 q 511 690 550 714 q 201 361 350 581 q 157 219 158 296 l 157 168 q 101 99 157 103 z "},"s":{"ha":318,"x_min":32,"x_max":296,"o":"m 100 17 q 43 72 43 22 q 83 115 43 104 q 113 131 101 119 q 182 221 182 193 q 121 303 182 246 l 64 361 q 32 447 32 403 q 34 479 32 451 q 74 546 36 507 q 194 597 118 592 q 247 583 225 597 q 269 543 269 568 q 214 481 269 501 q 169 455 189 474 q 150 424 150 436 q 181 388 150 407 q 211 363 196 376 q 296 222 296 282 q 271 151 296 188 q 167 40 231 88 q 100 17 139 17 z "},"t":{"ha":382,"x_min":-11,"x_max":485,"o":"m 225 -162 q 164 -126 194 -162 q 121 288 121 -64 l 122 526 q 75 515 93 524 q 54 508 65 508 q 0 542 24 508 q -11 575 -11 560 q 29 622 -11 610 q 110 646 67 640 q 133 675 133 650 l 153 844 q 197 890 164 890 q 265 829 265 890 q 250 681 254 708 q 253 668 250 675 q 285 665 269 665 q 485 574 478 665 q 444 536 485 536 q 419 539 433 536 q 308 550 351 550 q 236 519 236 550 l 235 404 q 232 211 232 296 q 254 -86 232 -44 q 263 -119 263 -104 q 239 -161 263 -149 l 225 -162 z "},"u":{"ha":361,"x_min":14,"x_max":319,"o":"m 265 83 l 258 83 q 199 163 199 83 l 199 225 l 194 226 l 183 214 q 108 172 150 172 q 81 174 106 172 q 36 224 57 175 q 14 344 14 283 q 69 440 14 440 q 86 438 78 440 q 119 392 117 426 q 118 378 119 385 q 117 365 117 372 l 118 338 q 181 485 128 347 q 256 565 210 565 q 272 563 264 565 q 318 507 313 550 q 319 475 319 492 q 315 381 319 429 q 311 224 311 303 q 313 183 311 203 l 313 142 q 265 83 310 92 z "},"v":{"ha":342,"x_min":25,"x_max":311,"o":"m 142 103 l 136 103 q 76 132 104 103 q 25 339 25 199 q 33 435 25 386 q 83 483 42 483 q 133 428 133 481 l 131 371 q 136 306 131 339 q 199 532 146 325 q 257 586 211 586 q 311 525 311 583 q 308 506 311 515 l 290 438 q 224 196 260 317 q 142 103 203 108 z "},"w":{"ha":665,"x_min":-8,"x_max":601,"o":"m 82 86 q 51 90 75 86 q 7 138 28 94 q -8 214 -8 174 q 33 396 -8 301 q 107 457 57 457 q 138 449 122 457 q 167 390 167 429 q 163 371 167 381 q 151 308 151 349 q 174 321 164 311 q 243 344 210 344 q 304 325 274 344 q 349 290 328 308 q 417 247 392 247 q 447 272 436 247 q 489 431 489 357 q 486 468 489 449 l 485 490 q 518 533 489 521 q 538 538 528 538 q 571 524 556 538 q 600 456 600 496 l 601 432 q 551 226 601 336 q 417 135 506 135 q 276 203 353 135 q 240 228 251 228 q 215 208 232 228 q 168 147 178 167 q 82 86 126 86 z "},"x":{"ha":417,"x_min":22,"x_max":383,"o":"m 335 8 q 253 81 296 8 q 176 208 179 206 q 165 221 174 218 q 139 185 158 214 l 115 154 q 76 138 96 138 q 44 149 61 138 q 22 190 22 165 q 92 324 22 221 q 99 344 99 333 q 39 463 99 361 q 31 492 31 478 q 46 524 31 510 q 79 539 61 539 q 140 494 113 539 q 142 490 140 492 q 165 460 158 465 q 181 488 172 474 q 197 519 189 503 q 222 549 206 535 q 257 564 239 564 q 289 551 272 564 q 306 517 306 538 q 297 489 306 504 q 264 421 279 456 q 236 364 251 392 q 232 347 232 356 q 239 326 232 336 l 339 157 q 383 58 383 86 q 361 17 383 33 q 335 8 347 8 z "},"y":{"ha":414,"x_min":15,"x_max":374,"o":"m 254 -403 q 232 -399 243 -403 q 197 -350 197 -385 q 206 -325 197 -337 q 238 -231 231 -292 q 239 -226 238 -228 q 261 156 261 -50 q 244 371 261 294 q 121 289 178 289 q 78 297 110 289 q 25 378 47 306 q 15 458 15 418 q 21 510 15 494 q 69 543 35 542 q 119 474 119 540 l 119 458 q 126 415 119 436 l 129 415 q 190 489 135 415 q 267 539 225 539 q 290 535 272 539 q 326 503 308 532 q 347 442 343 475 q 374 138 374 310 q 351 -232 374 -49 q 254 -403 333 -403 z "},"z":{"ha":478,"x_min":25,"x_max":447,"o":"m 169 157 q 136 163 153 157 q 83 229 83 181 l 85 250 q 150 354 96 282 q 163 375 163 369 l 161 379 q 114 350 132 372 q 75 328 96 328 q 54 332 65 328 q 25 379 25 346 q 43 425 25 407 q 206 503 94 481 l 232 504 q 300 474 279 504 q 314 431 314 454 q 269 328 314 390 l 236 281 q 244 275 240 275 q 354 292 254 275 q 383 294 368 294 q 447 242 447 290 q 418 194 447 211 q 386 183 403 186 q 169 157 254 157 z "},"{":{"ha":432,"x_min":28,"x_max":406,"o":"m 279 -333 l 268 -333 q 136 -232 154 -333 q 125 -96 125 -150 q 111 253 113 242 q 76 318 108 299 q 42 351 57 329 q 28 401 28 374 q 92 526 28 447 q 165 731 156 606 q 176 876 165 772 q 236 1104 193 1029 q 333 1161 271 1161 q 371 1154 353 1161 q 406 1108 406 1140 q 356 1058 406 1064 q 329 1054 336 1058 q 301 953 311 1040 q 281 771 285 863 l 278 739 q 204 494 269 586 q 154 422 179 457 q 149 408 149 414 q 157 396 149 403 q 203 343 189 375 q 229 156 229 282 q 231 107 229 131 q 235 -6 233 51 q 247 -207 239 -150 q 267 -231 249 -231 l 318 -224 q 375 -276 375 -224 q 279 -333 375 -333 z "},"}":{"ha":432,"x_min":28,"x_max":406,"o":"m 165 -333 l 154 -333 q 57 -276 57 -333 q 115 -224 57 -224 l 165 -231 q 186 -207 183 -231 q 199 -6 194 -150 q 203 107 200 51 l 204 156 q 231 343 204 282 q 276 396 244 375 q 285 408 285 403 q 279 422 285 414 q 229 494 254 457 q 156 739 163 586 l 153 771 q 132 953 149 863 q 104 1054 122 1040 q 78 1058 97 1058 q 28 1108 28 1064 q 63 1154 28 1140 q 99 1161 79 1161 q 197 1104 161 1161 q 257 876 240 1029 q 268 731 268 772 q 341 526 276 606 q 406 401 406 447 q 391 351 406 374 q 357 318 376 329 q 322 253 325 299 q 308 -96 319 242 q 297 -232 308 -150 q 165 -333 279 -333 z "},"~":{"ha":478,"x_min":28,"x_max":450,"o":"m 279 258 l 249 260 q 153 346 208 264 l 149 351 q 138 322 138 342 q 83 264 138 265 q 43 282 58 265 q 28 321 28 299 q 103 454 32 404 q 154 469 129 469 q 254 399 204 469 q 281 374 267 374 q 329 438 300 374 q 394 503 358 503 q 418 499 406 503 q 450 450 450 482 q 447 435 450 443 q 279 258 382 258 z "},"¡":{"ha":254,"x_min":28,"x_max":226,"o":"m 78 -176 q 57 -172 68 -176 q 28 -128 28 -160 l 29 -111 q 108 479 78 122 q 111 499 108 490 q 163 543 124 543 q 210 494 203 539 q 215 440 215 467 q 136 -107 206 189 q 78 -176 122 -176 m 178 825 q 138 840 156 825 q 119 878 121 856 q 133 913 119 899 q 168 928 147 926 q 209 911 192 926 q 226 874 226 896 q 213 840 226 854 q 178 825 199 825 z "},"¢":{"ha":390,"x_min":28,"x_max":363,"o":"m 167 339 q 169 400 169 364 q 164 454 169 436 q 140 386 140 418 q 167 339 140 356 m 235 -57 q 183 -18 200 -57 q 171 194 171 15 q 149 225 171 221 q 28 383 28 261 q 33 432 28 407 q 151 625 64 546 q 168 663 168 639 l 179 861 q 231 910 186 910 q 282 842 282 910 l 279 756 l 281 679 q 293 635 281 647 q 329 571 329 604 q 299 528 329 544 q 281 501 281 519 q 282 336 282 442 l 311 340 q 349 326 335 340 q 363 288 363 311 q 313 222 356 238 q 283 183 283 213 q 285 97 285 142 q 289 3 286 51 q 235 -57 289 -51 z "},"£":{"ha":439,"x_min":28,"x_max":411,"o":"m 326 -42 q 308 -39 318 -42 q 69 142 88 3 q 51 174 69 165 q 28 214 28 189 q 56 260 28 246 q 90 282 79 265 q 110 318 101 299 q 201 482 165 429 q 218 526 218 504 q 203 569 218 547 q 160 683 160 636 q 176 747 160 717 q 251 828 201 799 q 308 842 279 842 q 341 838 317 842 q 394 807 365 835 q 411 769 411 789 q 403 743 411 757 q 363 721 388 721 q 338 728 344 721 q 313 736 325 736 q 292 725 303 736 q 274 686 274 707 q 279 664 274 675 q 308 611 300 619 q 333 526 333 568 q 306 438 333 482 q 254 353 283 403 q 242 332 244 336 q 239 319 239 328 l 247 319 q 272 322 261 319 q 293 325 282 325 q 326 319 310 325 q 365 269 365 306 q 283 211 365 215 q 232 203 257 208 l 203 199 q 181 165 181 194 q 325 72 181 103 l 329 72 q 393 15 392 63 q 364 -32 393 -17 q 326 -42 346 -42 z "},"¥":{"ha":403,"x_min":28,"x_max":375,"o":"m 215 -90 q 153 -18 153 -82 l 154 1 q 139 36 154 25 q 118 74 118 51 q 140 114 118 100 q 164 151 161 128 l 167 181 q 166 190 167 185 q 154 196 165 194 l 97 194 q 53 242 57 200 q 74 283 53 267 q 122 299 96 299 l 150 297 q 185 328 185 297 l 183 340 l 185 356 q 197 476 192 414 l 200 501 l 169 482 q 119 468 144 468 q 106 469 114 468 q 76 481 99 471 q 38 539 53 490 q 28 610 28 568 q 40 725 28 665 q 88 763 53 763 q 131 743 115 763 q 142 710 142 728 l 133 633 q 138 608 133 617 q 147 614 144 608 q 156 626 156 625 l 206 707 q 257 742 226 742 q 308 717 290 742 q 322 636 322 697 q 310 465 322 592 q 294 313 294 329 q 306 303 294 304 q 375 249 375 303 q 335 196 375 208 q 308 190 321 190 q 299 192 303 190 q 279 172 279 192 l 278 150 q 299 128 278 136 q 333 83 333 114 q 278 29 333 38 q 267 14 267 28 l 265 -37 q 215 -90 260 -83 z "},"¿":{"ha":450,"x_min":28,"x_max":422,"o":"m 138 -292 q 44 -229 75 -292 q 28 -154 28 -189 q 60 10 31 -62 q 133 172 93 93 q 297 619 249 403 q 304 674 304 647 q 299 726 304 688 q 331 779 299 765 q 350 783 340 783 q 388 765 371 783 q 415 675 415 735 q 401 569 415 622 q 246 146 349 349 q 168 -21 203 64 q 142 -162 142 -83 q 151 -176 143 -175 q 188 -156 157 -176 q 313 46 281 -78 l 314 57 q 307 78 314 68 q 296 113 296 96 q 322 157 296 138 q 358 168 342 168 q 403 144 383 168 q 422 74 422 117 q 415 19 422 47 q 242 -254 383 -151 q 138 -292 189 -292 m 367 910 q 332 924 347 910 q 317 960 317 938 q 332 994 317 979 q 372 1011 347 1010 q 408 998 393 1011 q 422 963 422 985 q 407 926 422 940 q 367 910 392 911 z "},"À":{"ha":422,"x_min":28,"x_max":394,"o":"m 203 632 q 232 636 218 632 q 267 644 258 640 q 276 671 276 647 q 282 864 278 764 q 279 890 282 879 q 225 761 251 844 q 194 632 199 678 l 203 632 m 324 -206 q 271 -136 271 -201 l 269 153 q 271 432 269 293 l 271 535 q 183 525 228 529 q 169 507 169 522 q 135 79 135 264 q 138 48 135 63 q 142 24 142 33 q 94 -22 142 -17 q 40 13 51 -22 q 28 176 28 49 q 36 344 28 261 q 181 949 69 731 q 310 1074 243 1074 q 341 1067 321 1074 q 376 1029 361 1061 q 392 963 390 997 q 394 854 394 908 q 392 736 394 801 q 381 158 381 440 l 382 -132 q 374 -174 382 -153 q 324 -206 358 -206 m 346 1182 q 244 1301 296 1188 q 240 1318 240 1310 q 244 1335 240 1325 q 260 1351 247 1344 q 281 1358 272 1358 q 322 1328 304 1358 q 372 1257 344 1290 q 388 1219 388 1239 q 346 1182 388 1182 z "},"Á":{"ha":422,"x_min":28,"x_max":406,"o":"m 203 632 q 232 636 218 632 q 267 644 258 640 q 276 671 276 647 q 282 864 278 764 q 279 890 282 879 q 225 761 251 844 q 194 632 199 678 l 203 632 m 324 -206 q 271 -136 271 -201 l 269 153 q 271 432 269 293 l 271 535 q 183 525 228 529 q 169 507 169 522 q 135 79 135 264 q 138 48 135 63 q 142 24 142 33 q 94 -22 142 -17 q 40 13 51 -22 q 28 176 28 49 q 36 344 28 261 q 181 949 69 731 q 310 1074 243 1074 q 341 1067 321 1074 q 376 1029 361 1061 q 392 963 390 997 q 394 854 394 908 q 392 736 394 801 q 381 158 381 440 l 382 -132 q 374 -174 382 -153 q 324 -206 358 -206 m 293 1167 q 266 1179 279 1167 q 253 1207 253 1192 q 271 1249 253 1225 q 332 1326 294 1272 q 364 1346 346 1346 q 406 1301 406 1339 q 333 1189 401 1271 q 293 1167 318 1167 z "},"Â":{"ha":422,"x_min":28,"x_max":431,"o":"m 203 632 q 232 636 218 632 q 267 644 258 640 q 276 671 276 647 q 282 864 278 764 q 279 890 282 879 q 225 761 251 844 q 194 632 199 678 l 203 632 m 324 -206 q 271 -136 271 -201 l 269 153 q 271 432 269 293 l 271 535 q 183 525 228 529 q 169 507 169 522 q 135 79 135 264 q 138 48 135 63 q 142 24 142 33 q 94 -22 142 -17 q 40 13 51 -22 q 28 176 28 49 q 36 344 28 261 q 181 949 69 731 q 310 1074 243 1074 q 341 1067 321 1074 q 376 1029 361 1061 q 392 963 390 997 q 394 854 394 908 q 392 736 394 801 q 381 158 381 440 l 382 -132 q 374 -174 382 -153 q 324 -206 358 -206 m 389 1143 q 343 1200 358 1143 l 319 1268 l 278 1182 q 264 1158 278 1172 q 231 1143 250 1143 q 214 1146 222 1143 q 188 1190 188 1160 q 192 1211 188 1201 q 200 1229 197 1221 q 281 1381 261 1360 q 324 1403 300 1403 q 390 1342 367 1403 q 417 1243 407 1292 q 431 1183 429 1196 q 404 1146 431 1157 q 389 1143 396 1143 z "},"Ã":{"ha":422,"x_min":28,"x_max":499,"o":"m 203 632 q 232 636 218 632 q 267 644 258 640 q 276 671 276 647 q 282 864 278 764 q 279 890 282 879 q 225 761 251 844 q 194 632 199 678 l 203 632 m 324 -206 q 271 -136 271 -201 l 269 153 q 271 432 269 293 l 271 535 q 183 525 228 529 q 169 507 169 522 q 135 79 135 264 q 138 48 135 63 q 142 24 142 33 q 94 -22 142 -17 q 40 13 51 -22 q 28 176 28 49 q 36 344 28 261 q 181 949 69 731 q 310 1074 243 1074 q 341 1067 321 1074 q 376 1029 361 1061 q 392 963 390 997 q 394 854 394 908 q 392 736 394 801 q 381 158 381 440 l 382 -132 q 374 -174 382 -153 q 324 -206 358 -206 m 239 1129 q 219 1135 231 1129 q 200 1169 200 1149 q 203 1188 200 1178 q 296 1275 243 1275 q 349 1258 321 1275 q 367 1249 363 1249 q 417 1303 374 1249 q 456 1324 436 1324 q 481 1315 468 1324 q 499 1279 499 1301 q 489 1250 499 1265 q 367 1154 428 1154 q 315 1174 340 1156 q 300 1181 304 1181 q 286 1168 294 1181 q 239 1129 267 1129 z "},"Ä":{"ha":422,"x_min":28,"x_max":450,"o":"m 203 632 q 232 636 218 632 q 267 644 258 640 q 276 671 276 647 q 282 864 278 764 q 279 890 282 879 q 225 761 251 844 q 194 632 199 678 l 203 632 m 324 -206 q 271 -136 271 -201 l 269 153 q 271 432 269 293 l 271 535 q 183 525 228 529 q 169 507 169 522 q 135 79 135 264 q 138 48 135 63 q 142 24 142 33 q 94 -22 142 -17 q 40 13 51 -22 q 28 176 28 49 q 36 344 28 261 q 181 949 69 731 q 310 1074 243 1074 q 341 1067 321 1074 q 376 1029 361 1061 q 392 963 390 997 q 394 854 394 908 q 392 736 394 801 q 381 158 381 440 l 382 -132 q 374 -174 382 -153 q 324 -206 358 -206 m 243 1156 q 204 1172 221 1156 q 188 1213 188 1188 q 202 1251 188 1235 q 240 1267 217 1267 q 280 1252 264 1267 q 297 1214 296 1238 q 282 1174 297 1190 q 243 1156 267 1157 m 392 1161 q 357 1177 371 1161 q 342 1217 343 1193 q 356 1253 342 1239 q 392 1268 369 1267 q 432 1253 415 1268 q 450 1218 449 1239 q 432 1178 450 1196 q 392 1161 414 1161 z "},"Å":{"ha":422,"x_min":28,"x_max":425,"o":"m 203 632 q 232 636 218 632 q 267 644 258 640 q 276 671 276 647 q 282 864 278 764 q 279 890 282 879 q 225 761 251 844 q 194 632 199 678 l 203 632 m 324 -206 q 271 -136 271 -201 l 269 153 q 271 432 269 293 l 271 535 q 183 525 228 529 q 169 507 169 522 q 135 79 135 264 q 138 48 135 63 q 142 24 142 33 q 94 -22 142 -17 q 40 13 51 -22 q 28 176 28 49 q 36 344 28 261 q 181 949 69 731 q 310 1074 243 1074 q 341 1067 321 1074 q 376 1029 361 1061 q 392 963 390 997 q 394 854 394 908 q 392 736 394 801 q 381 158 381 440 l 382 -132 q 374 -174 382 -153 q 324 -206 358 -206 m 331 1138 q 276 1176 294 1138 q 269 1218 269 1196 q 299 1331 271 1279 q 338 1357 314 1356 q 379 1333 361 1357 q 397 1321 385 1325 q 425 1274 425 1310 q 365 1151 425 1199 q 331 1138 347 1138 z "},"Æ":{"ha":740,"x_min":28,"x_max":689,"o":"m 203 632 q 232 636 218 632 q 267 644 258 640 q 276 671 276 647 q 282 865 278 764 q 279 890 282 879 q 225 761 251 844 q 194 632 199 678 l 203 632 m 324 -206 q 271 -136 271 -201 l 269 153 q 271 432 269 293 l 271 535 q 183 525 228 529 q 169 507 169 522 q 135 79 135 264 q 138 48 135 63 q 142 24 142 33 q 93 -22 142 -18 q 40 13 51 -22 q 28 176 28 49 q 36 344 28 261 q 181 949 69 731 q 310 1074 243 1074 q 341 1067 321 1074 q 376 1029 361 1061 q 392 962 390 997 q 394 889 393 926 q 414 1003 404 968 q 461 1039 428 1039 q 479 1035 469 1039 q 501 1032 489 1032 q 519 1035 510 1032 q 582 1043 565 1043 q 643 996 640 1043 q 556 933 643 939 q 511 928 525 933 q 503 906 503 924 q 482 524 482 665 q 489 508 482 508 q 553 522 544 522 q 607 475 607 522 q 544 415 607 431 q 499 406 517 408 q 482 388 482 403 q 504 94 482 210 q 524 48 510 60 q 583 36 538 36 l 633 40 q 689 -14 689 35 q 581 -76 689 -76 q 506 -68 543 -76 q 410 15 435 -53 q 381 146 390 68 l 382 -132 q 374 -174 382 -153 q 324 -206 358 -206 z "},"Œ":{"ha":681,"x_min":28,"x_max":664,"o":"m 218 97 q 239 144 239 129 q 292 600 292 318 q 236 965 292 965 q 161 875 197 965 q 183 853 174 868 q 199 793 199 824 q 174 742 199 756 q 156 715 158 735 q 140 513 140 614 q 174 215 140 363 q 218 97 186 156 m 556 -61 q 481 -53 518 -61 q 385 31 410 -37 q 357 146 367 78 q 219 -32 310 -32 q 149 2 179 -32 q 103 75 118 36 q 28 499 28 246 q 82 847 28 725 q 65 882 65 863 q 68 899 65 890 q 181 1063 97 1021 q 251 1083 221 1083 q 307 1060 285 1083 q 372 932 351 1010 q 389 1018 382 990 q 436 1054 403 1054 q 454 1051 444 1054 q 476 1047 464 1047 q 494 1050 485 1047 q 557 1058 540 1058 q 618 1011 615 1058 q 531 949 618 954 q 486 943 500 949 q 478 921 478 939 q 457 539 457 681 q 464 524 457 524 q 528 538 519 538 q 582 490 582 538 q 519 431 582 446 q 474 421 492 424 q 457 403 457 418 q 479 110 457 225 q 499 63 485 75 q 558 51 513 51 l 608 56 q 664 1 664 50 q 556 -61 664 -61 z "},"Ç":{"ha":453,"x_min":28,"x_max":425,"o":"m 239 -425 q 203 -397 218 -425 q 210 -367 203 -382 q 251 -314 218 -353 q 306 -228 296 -262 q 266 -251 286 -239 q 229 -262 246 -262 q 199 -254 217 -262 q 174 -164 174 -242 q 172 -64 174 -100 q 135 -22 151 -46 q 65 126 86 44 q 28 401 28 261 q 76 751 28 590 q 160 922 104 846 q 292 999 217 999 q 388 932 350 999 q 425 728 425 853 q 424 685 425 706 q 372 621 417 621 q 322 679 322 621 q 294 864 322 794 q 282 882 289 882 q 240 840 268 882 q 172 676 192 765 q 139 415 139 546 q 167 178 139 297 q 213 63 181 117 q 249 21 225 39 q 261 44 258 33 q 265 54 263 50 q 315 89 283 89 q 335 86 325 89 q 371 33 371 72 l 369 17 q 264 -97 340 -93 l 264 -126 l 263 -132 q 267 -144 263 -140 q 288 -139 274 -144 q 317 -133 303 -133 q 365 -150 340 -133 q 394 -208 390 -167 q 329 -360 394 -294 q 239 -425 264 -425 z "},"È":{"ha":376,"x_min":28,"x_max":349,"o":"m 240 -67 q 165 -58 203 -67 q 69 25 94 -43 q 31 339 31 131 q 28 476 28 408 q 43 808 28 647 q 74 1013 58 961 q 121 1049 88 1049 q 138 1045 128 1049 q 160 1042 149 1042 q 179 1044 169 1042 q 242 1053 225 1053 q 303 1006 299 1053 q 215 943 303 949 q 169 938 185 943 q 163 915 163 933 q 142 533 142 675 q 147 518 142 518 l 213 532 q 265 485 265 532 q 204 425 265 440 q 158 415 176 418 q 140 397 140 413 q 164 104 140 219 q 183 58 169 69 q 242 46 197 46 l 293 50 q 349 -4 349 44 q 240 -67 349 -67 m 211 1114 q 110 1233 160 1119 q 106 1250 106 1242 q 109 1267 106 1257 q 124 1283 113 1276 q 146 1290 136 1290 q 188 1260 169 1290 q 238 1189 210 1222 q 253 1151 253 1171 q 211 1114 253 1114 z "},"É":{"ha":376,"x_min":28,"x_max":349,"o":"m 240 -67 q 165 -58 203 -67 q 69 25 94 -43 q 31 339 31 131 q 28 476 28 408 q 43 808 28 647 q 74 1013 58 961 q 121 1049 88 1049 q 138 1045 128 1049 q 160 1042 149 1042 q 179 1044 169 1042 q 242 1053 225 1053 q 303 1006 299 1053 q 215 943 303 949 q 169 938 185 943 q 163 915 163 933 q 142 533 142 675 q 147 518 142 518 l 213 532 q 265 485 265 532 q 204 425 265 440 q 158 415 176 418 q 140 397 140 413 q 164 104 140 219 q 183 58 169 69 q 242 46 197 46 l 293 50 q 349 -4 349 44 q 240 -67 349 -67 m 200 1103 q 172 1115 185 1103 q 160 1143 160 1128 q 178 1185 160 1161 q 239 1263 201 1208 q 271 1282 251 1282 q 313 1238 313 1275 q 240 1125 308 1207 q 200 1103 224 1103 z "},"Ê":{"ha":376,"x_min":28,"x_max":349,"o":"m 240 -67 q 165 -58 203 -67 q 69 25 94 -43 q 31 339 31 131 q 28 476 28 408 q 43 808 28 647 q 74 1013 58 961 q 121 1049 88 1049 q 138 1045 128 1049 q 160 1042 149 1042 q 179 1044 169 1042 q 242 1053 225 1053 q 303 1006 299 1053 q 215 943 303 949 q 169 938 185 943 q 163 915 163 933 q 142 533 142 675 q 147 518 142 518 l 213 532 q 265 485 265 532 q 204 425 265 440 q 158 415 176 418 q 140 397 140 413 q 164 104 140 219 q 183 58 169 69 q 242 46 197 46 l 293 50 q 349 -4 349 44 q 240 -67 349 -67 m 278 1122 q 232 1179 247 1122 l 208 1247 l 167 1161 q 152 1137 167 1151 q 119 1122 138 1122 q 103 1125 111 1122 q 76 1169 76 1139 q 81 1190 76 1181 q 89 1208 86 1200 q 169 1360 150 1339 q 213 1382 189 1382 q 278 1321 256 1382 q 306 1222 296 1271 q 319 1163 318 1175 q 293 1125 319 1136 q 278 1122 285 1122 z "},"Ë":{"ha":376,"x_min":28,"x_max":349,"o":"m 240 -67 q 165 -58 203 -67 q 69 25 94 -43 q 31 339 31 131 q 28 476 28 408 q 43 808 28 647 q 74 1013 58 961 q 121 1049 88 1049 q 138 1045 128 1049 q 160 1042 149 1042 q 179 1044 169 1042 q 242 1053 225 1053 q 303 1006 299 1053 q 215 943 303 949 q 169 938 185 943 q 163 915 163 933 q 142 533 142 675 q 147 518 142 518 l 213 532 q 265 485 265 532 q 204 425 265 440 q 158 415 176 418 q 140 397 140 413 q 164 104 140 219 q 183 58 169 69 q 242 46 197 46 l 293 50 q 349 -4 349 44 q 240 -67 349 -67 m 108 1138 q 69 1153 86 1138 q 53 1194 53 1169 q 67 1233 53 1217 q 106 1249 82 1249 q 145 1234 129 1249 q 163 1196 161 1219 q 147 1156 163 1172 q 108 1138 132 1139 m 257 1143 q 222 1159 236 1143 q 207 1199 207 1175 q 221 1235 207 1221 q 256 1250 235 1249 q 297 1235 281 1250 q 315 1200 314 1221 q 297 1160 314 1178 q 257 1143 279 1143 z "},"Ì":{"ha":215,"x_min":28,"x_max":215,"o":"m 81 -72 q 29 -17 35 -68 l 28 24 q 35 142 28 51 q 85 904 67 761 l 86 925 l 85 932 q 136 988 85 982 q 178 963 161 988 q 188 921 188 944 q 160 357 171 532 q 142 22 149 189 l 138 -24 q 81 -72 125 -72 m 174 1079 q 72 1199 122 1085 q 68 1215 68 1207 q 72 1232 68 1222 q 87 1249 75 1242 q 108 1256 99 1256 q 150 1225 132 1256 q 200 1154 172 1188 q 215 1117 215 1136 q 174 1079 215 1079 z "},"Í":{"ha":215,"x_min":28,"x_max":218,"o":"m 81 -72 q 29 -17 35 -68 l 28 24 q 35 142 28 51 q 85 904 67 761 l 86 925 l 85 932 q 136 988 85 982 q 178 963 161 988 q 188 921 188 944 q 160 357 171 532 q 142 22 149 189 l 138 -24 q 81 -72 125 -72 m 106 1071 q 78 1083 90 1071 q 65 1111 65 1096 q 83 1153 65 1129 q 144 1231 107 1176 q 176 1250 157 1250 q 218 1206 218 1243 q 146 1093 214 1175 q 106 1071 129 1071 z "},"Î":{"ha":215,"x_min":28,"x_max":271,"o":"m 81 -72 q 29 -17 35 -68 l 28 24 q 35 142 28 51 q 85 904 68 761 q 86 925 86 914 l 86 932 q 136 988 86 982 q 178 963 161 988 q 188 921 188 944 q 160 357 171 532 q 142 22 149 189 q 138 -24 140 -1 q 81 -72 125 -72 m 229 1067 q 183 1124 199 1067 l 160 1192 l 118 1106 q 104 1081 118 1096 q 71 1067 90 1067 q 54 1069 63 1067 q 28 1114 28 1083 q 33 1135 28 1125 q 40 1153 38 1144 q 121 1305 101 1283 q 164 1326 140 1326 q 231 1265 207 1326 q 257 1167 247 1215 q 271 1107 269 1119 q 244 1069 271 1081 q 229 1067 236 1067 z "},"Ï":{"ha":215,"x_min":15,"x_max":278,"o":"m 81 -72 q 29 -17 35 -68 l 28 24 q 35 142 28 51 q 85 904 68 761 q 86 925 86 914 l 86 932 q 136 988 86 982 q 178 963 161 988 q 188 921 188 944 q 160 357 171 532 q 142 22 149 189 q 138 -24 140 -1 q 81 -72 125 -72 m 71 1060 q 32 1076 49 1060 q 15 1117 15 1092 q 30 1155 15 1139 q 68 1171 44 1171 q 108 1156 92 1171 q 125 1118 124 1142 q 110 1078 125 1094 q 71 1060 94 1061 m 219 1065 q 185 1081 199 1065 q 169 1121 171 1097 q 183 1157 169 1143 q 219 1172 197 1171 q 260 1158 243 1172 q 278 1122 276 1143 q 260 1083 278 1100 q 219 1065 242 1065 z "},"Ð":{"ha":539,"x_min":21,"x_max":511,"o":"m 197 -37 q 160 -19 176 -37 q 143 -10 153 -10 q 129 -15 138 -10 q 81 -31 108 -31 q 32 4 46 -31 q 28 28 28 17 q 72 90 28 64 l 89 100 q 143 163 143 128 q 140 190 143 176 q 138 499 138 204 l 67 490 q 24 514 38 490 q 21 531 21 522 q 44 565 21 550 q 138 585 60 575 l 138 638 q 164 978 138 808 q 242 1057 179 1057 q 351 1007 297 1057 q 444 874 411 951 q 511 581 508 722 q 385 211 511 351 q 272 97 332 151 q 254 44 254 83 q 197 -37 254 -37 m 251 243 q 321 317 293 281 q 399 558 399 418 q 329 850 399 714 q 279 922 310 890 q 268 931 274 931 l 261 929 q 250 596 251 779 l 260 596 q 328 554 325 596 q 285 511 328 521 l 250 507 l 251 243 z "},"Ñ":{"ha":519,"x_min":8,"x_max":493,"o":"m 160 -162 q 128 -151 144 -162 q 99 -104 103 -133 l 92 -57 q 29 551 38 225 l 28 608 q 42 775 28 726 q 99 818 54 818 q 171 747 154 818 l 194 675 q 371 239 264 454 q 378 250 378 242 q 346 1178 372 307 q 400 1250 346 1244 q 458 1171 458 1250 l 460 1164 q 493 154 476 558 q 479 58 493 85 q 417 22 460 22 q 160 432 322 22 q 143 453 156 447 q 206 -97 190 -54 q 208 -115 208 -107 q 189 -153 208 -137 q 160 -162 175 -162 m 49 904 q 28 910 39 904 q 8 944 8 924 q 11 963 8 953 q 104 1050 51 1050 q 157 1033 129 1050 q 175 1024 171 1024 q 225 1078 182 1024 q 264 1099 244 1099 q 289 1090 276 1099 q 308 1054 307 1076 q 297 1025 308 1040 q 175 929 236 929 q 124 949 149 931 q 108 956 114 956 q 94 943 103 956 q 49 904 76 904 z "},"Ò":{"ha":432,"x_min":28,"x_max":404,"o":"m 218 97 q 239 144 239 129 q 292 600 292 318 q 236 965 292 965 q 161 875 197 965 q 183 853 174 868 q 199 793 199 824 q 174 742 199 756 q 156 715 158 735 q 140 513 140 614 q 174 215 140 363 q 218 97 186 156 m 219 -32 q 149 2 179 -32 q 103 75 118 36 q 28 499 28 246 q 82 847 28 725 q 65 882 65 863 q 68 899 65 890 q 181 1063 97 1021 q 251 1083 221 1083 q 307 1060 285 1083 q 385 874 367 992 q 404 611 404 756 q 374 215 404 385 q 219 -32 325 -32 m 292 1147 q 190 1267 242 1153 q 186 1283 186 1275 q 190 1300 186 1290 q 206 1317 193 1310 q 226 1324 218 1324 q 268 1293 250 1324 q 318 1222 290 1256 q 333 1185 333 1204 q 292 1147 333 1147 z "},"Ó":{"ha":432,"x_min":28,"x_max":404,"o":"m 218 97 q 239 144 239 129 q 292 600 292 318 q 236 965 292 965 q 161 875 197 965 q 183 853 174 868 q 199 793 199 824 q 174 742 199 756 q 156 715 158 735 q 140 513 140 614 q 174 215 140 363 q 218 97 186 156 m 219 -32 q 149 2 179 -32 q 103 75 118 36 q 28 499 28 246 q 82 847 28 725 q 65 882 65 863 q 68 899 65 890 q 181 1063 97 1021 q 251 1083 221 1083 q 307 1060 285 1083 q 385 874 367 992 q 404 611 404 756 q 374 215 404 385 q 219 -32 325 -32 m 226 1143 q 199 1156 213 1143 q 186 1183 186 1168 q 204 1225 186 1201 q 265 1303 228 1249 q 297 1322 279 1322 q 339 1278 339 1315 q 267 1165 335 1247 q 226 1143 251 1143 z "},"Ô":{"ha":432,"x_min":28,"x_max":404,"o":"m 218 97 q 239 144 239 129 q 292 600 292 318 q 236 965 292 965 q 161 875 197 965 q 183 853 174 868 q 199 793 199 824 q 174 742 199 756 q 156 715 158 735 q 140 513 140 614 q 174 215 140 363 q 218 97 186 156 m 219 -32 q 149 2 179 -32 q 103 75 118 36 q 28 499 28 246 q 82 847 28 725 q 65 882 65 863 q 68 899 65 890 q 181 1063 97 1021 q 251 1083 221 1083 q 307 1060 285 1083 q 385 874 367 992 q 404 611 404 756 q 374 215 404 385 q 219 -32 325 -32 m 311 1139 q 265 1196 281 1139 l 242 1264 l 200 1178 q 186 1153 200 1168 q 153 1139 172 1139 q 136 1142 144 1139 q 110 1186 110 1156 q 115 1207 110 1197 q 122 1225 119 1217 q 203 1377 183 1356 q 246 1399 222 1399 q 313 1338 289 1399 q 339 1239 329 1288 q 353 1179 351 1192 q 326 1142 353 1153 q 311 1139 318 1139 z "},"Õ":{"ha":432,"x_min":28,"x_max":404,"o":"m 218 97 q 239 144 239 129 q 292 600 292 318 q 236 965 292 965 q 161 875 197 965 q 183 853 174 868 q 199 793 199 824 q 174 742 199 756 q 156 715 158 735 q 140 513 140 614 q 174 215 140 363 q 218 97 186 156 m 219 -32 q 149 2 179 -32 q 103 75 118 36 q 28 499 28 246 q 82 847 28 725 q 65 882 65 863 q 68 899 65 890 q 181 1063 97 1021 q 251 1083 221 1083 q 307 1060 285 1083 q 385 874 367 992 q 404 611 404 756 q 374 215 404 385 q 219 -32 325 -32 m 133 1128 q 114 1133 125 1128 q 94 1168 94 1147 q 97 1186 94 1176 q 190 1274 138 1274 q 243 1257 215 1274 q 261 1247 257 1247 q 311 1301 268 1247 q 350 1322 331 1322 q 375 1314 363 1322 q 393 1278 393 1300 q 383 1249 393 1264 q 261 1153 322 1153 q 210 1172 235 1154 q 194 1179 199 1179 q 181 1167 189 1179 q 133 1128 161 1128 z "},"Ö":{"ha":432,"x_min":28,"x_max":404,"o":"m 218 97 q 239 144 239 129 q 292 600 292 318 q 236 965 292 965 q 161 875 197 965 q 183 853 174 868 q 199 793 199 824 q 174 742 199 756 q 156 715 158 735 q 140 513 140 614 q 174 215 140 363 q 218 97 186 156 m 219 -32 q 149 2 179 -32 q 103 75 118 36 q 28 499 28 246 q 82 847 28 725 q 65 882 65 863 q 68 899 65 890 q 181 1063 97 1021 q 251 1083 221 1083 q 307 1060 285 1083 q 385 874 367 992 q 404 611 404 756 q 374 215 404 385 q 219 -32 325 -32 m 146 1165 q 107 1181 124 1165 q 90 1222 90 1197 q 105 1260 90 1244 q 143 1276 119 1276 q 183 1262 167 1276 q 200 1224 199 1247 q 185 1183 200 1200 q 146 1165 169 1167 m 314 1165 q 275 1181 292 1165 q 258 1222 258 1197 q 273 1260 258 1244 q 311 1276 288 1276 q 351 1262 335 1276 q 368 1224 367 1247 q 353 1183 368 1200 q 314 1165 338 1167 z "},"×":{"ha":514,"x_min":28,"x_max":486,"o":"m 364 146 q 329 158 340 146 q 283 200 307 182 q 240 235 246 235 q 215 224 232 235 q 126 185 151 185 q 79 214 94 185 q 76 233 76 224 q 107 278 76 256 q 154 314 154 304 q 51 425 154 319 q 28 475 28 451 q 50 517 28 497 q 86 529 69 529 q 132 504 110 529 l 236 394 q 251 386 243 386 q 400 519 267 386 q 436 535 418 535 q 474 517 456 535 q 486 486 486 504 q 463 425 486 457 q 343 313 446 403 q 336 301 336 306 q 389 244 336 294 q 411 197 411 221 q 393 156 411 172 q 364 146 381 146 z "},"Ø":{"ha":432,"x_min":-14,"x_max":486,"o":"m 49 -201 q 8 -187 25 -201 q -14 -131 -14 -168 q 69 165 -1 -49 q 28 499 28 308 q 82 847 28 725 q 65 882 65 863 q 68 899 65 890 q 181 1063 97 1021 q 251 1083 221 1083 q 306 1059 285 1083 q 344 1004 328 1035 q 381 1100 364 1060 q 436 1157 400 1157 q 453 1154 444 1157 q 486 1106 486 1140 q 481 1079 486 1092 q 394 808 436 943 q 404 611 404 717 q 374 215 404 385 q 219 -32 325 -32 q 139 13 178 -32 q 100 -142 101 -110 q 49 -201 97 -196 m 146 388 q 232 660 185 506 l 283 825 q 236 965 271 965 q 161 875 197 965 q 183 853 174 868 q 199 793 199 824 q 174 742 199 756 q 156 715 158 735 q 140 513 140 614 q 146 388 140 450 m 218 97 q 239 144 239 129 q 289 464 278 274 q 189 163 253 353 q 218 97 200 129 z "},"Ù":{"ha":469,"x_min":35,"x_max":486,"o":"m 232 -65 q 149 -31 188 -65 q 90 63 108 10 q 35 465 35 218 q 94 893 35 718 q 149 940 115 940 q 174 933 161 940 q 203 883 203 918 q 197 863 203 874 q 165 733 171 800 q 149 468 149 601 l 149 401 q 185 132 149 264 q 209 74 193 100 q 236 47 225 47 q 256 63 246 47 q 379 713 379 347 q 361 960 379 843 q 377 1001 361 986 q 413 1017 393 1015 q 447 1001 432 1015 q 486 782 486 961 q 447 353 486 590 q 382 86 419 181 q 232 -65 329 -62 m 322 1053 q 221 1172 272 1058 q 218 1189 218 1181 q 221 1206 218 1196 q 236 1222 224 1215 q 258 1229 249 1229 q 299 1199 281 1229 q 349 1128 321 1161 q 364 1090 364 1110 q 322 1053 364 1053 z "},"Ú":{"ha":469,"x_min":35,"x_max":486,"o":"m 232 -65 q 149 -31 188 -65 q 90 63 108 10 q 35 465 35 218 q 94 893 35 718 q 149 940 115 940 q 174 933 161 940 q 203 883 203 918 q 197 863 203 874 q 165 733 171 800 q 149 468 149 601 l 149 401 q 185 132 149 264 q 209 74 193 100 q 236 47 225 47 q 256 63 246 47 q 379 713 379 347 q 361 960 379 843 q 377 1001 361 986 q 413 1017 393 1015 q 447 1001 432 1015 q 486 782 486 961 q 447 353 486 590 q 382 86 419 181 q 232 -65 329 -62 m 256 1054 q 229 1067 242 1054 q 217 1094 217 1079 q 233 1136 217 1113 q 294 1214 257 1160 q 328 1233 308 1233 q 368 1189 368 1226 q 296 1076 365 1158 q 256 1054 281 1054 z "},"Û":{"ha":469,"x_min":35,"x_max":486,"o":"m 232 -65 q 149 -31 188 -65 q 90 63 108 10 q 35 465 35 218 q 94 893 35 718 q 149 940 115 940 q 174 933 161 940 q 203 883 203 918 q 197 863 203 874 q 165 733 171 800 q 149 468 149 601 l 149 401 q 185 132 149 264 q 209 74 193 100 q 236 47 225 47 q 256 63 246 47 q 379 713 379 347 q 361 960 379 843 q 377 1001 361 986 q 413 1017 393 1015 q 447 1001 432 1015 q 486 782 486 961 q 447 353 486 590 q 382 86 419 181 q 232 -65 329 -62 m 364 1057 q 317 1114 333 1057 q 293 1182 297 1175 l 251 1096 q 238 1072 251 1086 q 206 1057 224 1057 q 188 1060 197 1057 q 161 1104 161 1074 q 166 1125 161 1115 q 174 1143 171 1135 q 255 1295 235 1274 q 297 1317 275 1317 q 364 1256 342 1317 q 390 1157 381 1206 q 404 1097 403 1110 q 378 1060 404 1071 q 364 1057 371 1057 z "},"Ü":{"ha":469,"x_min":35,"x_max":486,"o":"m 232 -65 q 149 -31 188 -65 q 90 63 108 10 q 35 465 35 218 q 94 893 35 718 q 149 940 115 940 q 174 933 161 940 q 203 883 203 918 q 197 863 203 874 q 165 733 171 800 q 149 468 149 601 l 149 401 q 185 132 149 264 q 209 74 193 100 q 236 47 225 47 q 256 63 246 47 q 379 713 379 347 q 361 960 379 843 q 377 1001 361 986 q 413 1017 393 1015 q 447 1001 432 1015 q 486 782 486 961 q 447 353 486 590 q 382 86 419 181 q 232 -65 329 -62 m 219 1083 q 181 1099 197 1083 q 164 1140 164 1115 q 178 1178 164 1163 q 217 1194 193 1194 q 256 1180 240 1194 q 274 1142 272 1165 q 258 1101 274 1118 q 219 1083 243 1085 m 369 1089 q 334 1105 349 1089 q 318 1144 319 1121 q 333 1181 319 1167 q 368 1196 346 1194 q 410 1181 393 1196 q 426 1146 426 1167 q 408 1106 426 1124 q 369 1089 390 1089 z "},"Ÿ":{"ha":426,"x_min":43,"x_max":519,"o":"m 306 -342 q 267 -325 285 -342 q 240 -265 244 -299 q 235 -167 235 -217 q 292 460 243 147 l 292 471 q 283 467 286 471 q 276 456 281 464 q 252 425 264 442 q 225 390 240 408 q 136 339 188 339 q 71 379 97 339 q 49 449 51 411 q 43 549 43 499 q 104 888 43 722 q 165 944 122 944 q 217 875 217 944 q 199 829 217 847 q 190 808 190 819 q 156 533 156 674 l 156 506 q 163 493 156 500 q 182 519 174 503 q 413 903 276 663 q 463 935 429 935 q 498 922 479 935 q 519 881 517 908 q 510 836 519 857 q 376 250 410 582 q 347 -174 347 4 q 348 -216 347 -194 q 360 -258 349 -237 q 367 -287 367 -274 q 345 -326 367 -311 q 306 -342 324 -342 m 257 999 q 217 1015 235 999 q 200 1056 200 1031 q 215 1094 200 1078 q 254 1110 231 1110 q 294 1095 278 1110 q 311 1057 310 1081 q 296 1017 311 1033 q 257 999 281 1000 m 406 1004 q 370 1020 385 1004 q 356 1060 356 1036 q 369 1096 356 1082 q 404 1111 382 1110 q 446 1097 429 1111 q 463 1061 463 1082 q 444 1022 463 1039 q 406 1004 426 1004 z "},"Ý":{"ha":426,"x_min":43,"x_max":519,"o":"m 306 -342 q 267 -325 285 -342 q 240 -265 244 -299 q 235 -167 235 -217 q 292 460 243 147 l 292 471 q 283 467 286 471 q 276 456 281 464 q 252 425 264 442 q 225 390 240 408 q 136 339 188 339 q 71 379 97 339 q 49 449 51 411 q 43 549 43 499 q 104 888 43 722 q 165 944 122 944 q 217 875 217 944 q 199 829 217 847 q 190 808 190 819 q 156 533 156 674 l 156 506 q 163 493 156 500 q 182 519 174 503 q 413 903 276 663 q 463 935 429 935 q 498 922 479 935 q 519 881 517 908 q 510 836 519 857 q 376 250 410 582 q 347 -174 347 4 q 348 -216 347 -194 q 360 -258 349 -237 q 367 -287 367 -274 q 345 -326 367 -311 q 306 -342 324 -342 m 326 979 q 299 992 311 979 q 286 1019 286 1004 q 304 1061 286 1038 q 365 1139 328 1085 q 397 1158 378 1158 q 439 1114 439 1151 q 367 1001 435 1083 q 326 979 350 979 z "},"Ž":{"ha":408,"x_min":8,"x_max":725,"o":"m 672 -317 q 632 -307 657 -317 q 167 -149 450 -236 q 8 -3 8 -108 q 71 175 8 68 l 300 586 q 424 838 367 708 q 439 886 436 863 q 383 867 408 881 q 196 751 215 790 q 147 721 182 721 q 110 732 129 721 q 85 774 85 746 q 119 835 85 806 q 351 976 226 921 q 463 1003 404 1001 q 557 903 556 996 q 304 340 551 801 q 140 1 140 43 q 175 -24 140 -11 q 333 -83 276 -68 q 622 -182 478 -129 q 725 -267 725 -217 q 712 -301 725 -285 q 672 -317 699 -317 m 344 1025 q 279 1086 301 1025 q 251 1185 261 1136 q 238 1244 239 1232 q 264 1282 238 1271 q 279 1285 272 1285 q 325 1228 310 1285 l 349 1160 l 390 1246 q 405 1270 390 1256 q 438 1285 419 1285 q 454 1282 446 1285 q 481 1238 481 1268 q 476 1217 481 1226 q 468 1199 471 1207 q 388 1047 407 1068 q 344 1025 368 1025 z "},"ž":{"ha":478,"x_min":25,"x_max":447,"o":"m 169 157 q 136 163 153 157 q 83 229 83 181 l 85 250 q 150 354 96 282 q 163 375 163 369 l 161 379 q 114 350 132 372 q 75 328 96 328 q 54 332 65 328 q 25 379 25 346 q 43 425 25 407 q 206 503 94 481 l 232 504 q 300 474 279 504 q 314 431 314 454 q 269 328 314 390 l 236 281 q 244 275 240 275 q 354 292 254 275 q 383 294 368 294 q 447 242 447 290 q 418 194 447 211 q 386 183 403 186 q 169 157 254 157 m 172 564 q 107 625 129 564 q 79 724 89 675 q 65 783 67 771 q 92 821 65 810 q 107 824 100 824 q 153 767 138 824 l 176 699 l 218 785 q 232 809 218 794 q 265 824 246 824 q 282 821 274 824 q 308 776 308 807 q 303 756 308 765 q 296 738 299 746 q 215 585 235 607 q 172 564 196 564 z "},"Š":{"ha":507,"x_min":-10,"x_max":471,"o":"m 88 -178 q -10 -54 -10 -178 q 4 19 -10 -17 q 50 54 18 54 q 100 1 97 54 l 100 -57 q 144 -26 124 -47 q 315 229 260 81 q 360 414 360 333 q 251 542 360 518 q 167 550 228 547 q 128 557 151 550 q 65 640 69 579 q 78 713 65 678 q 214 974 126 854 q 288 1049 244 1017 q 367 1078 324 1078 q 429 1050 404 1078 q 443 1014 443 1032 q 436 989 443 1001 q 399 965 421 965 q 382 968 390 965 q 368 971 374 971 q 335 950 356 971 q 192 696 251 849 q 183 669 183 676 q 211 660 183 660 q 390 597 311 658 q 471 411 471 531 q 453 288 471 349 q 236 -96 397 67 q 88 -178 154 -178 m 321 1139 q 254 1200 278 1139 q 228 1299 238 1250 q 214 1358 215 1346 q 240 1396 214 1385 q 256 1399 249 1399 q 301 1342 286 1399 l 325 1274 l 367 1360 q 381 1384 367 1369 q 414 1399 394 1399 q 431 1396 422 1399 q 457 1351 457 1382 q 452 1331 457 1340 q 444 1313 447 1321 q 364 1160 383 1182 q 321 1139 344 1139 z "},"š":{"ha":318,"x_min":32,"x_max":315,"o":"m 100 17 q 43 72 43 22 q 83 115 43 104 q 113 131 101 119 q 182 221 182 193 q 121 303 182 246 l 64 361 q 32 447 32 403 q 34 479 32 451 q 74 546 36 507 q 194 597 118 592 q 247 583 225 597 q 269 543 269 568 q 214 481 269 501 q 169 455 189 474 q 150 424 150 436 q 181 388 150 407 q 211 363 196 376 q 296 222 296 282 q 271 151 296 188 q 167 40 231 88 q 100 17 139 17 m 179 647 q 114 708 136 647 q 86 807 96 758 q 72 867 74 854 q 99 904 72 893 q 114 907 107 907 q 160 850 144 907 l 183 782 l 225 868 q 240 892 225 878 q 272 907 254 907 q 289 904 281 907 q 315 860 315 890 q 310 839 315 849 q 303 821 306 829 q 222 669 242 690 q 179 647 203 647 z "},"Þ":{"ha":438,"x_min":28,"x_max":410,"o":"m 110 -294 q 44 -251 63 -294 q 31 -124 31 -212 q 46 53 31 -35 q 49 106 49 72 q 28 614 28 365 q 50 950 28 815 q 101 996 60 996 q 153 936 153 992 l 151 921 q 142 721 142 821 l 140 589 l 142 483 q 149 418 143 425 l 169 461 q 319 601 240 601 q 356 594 332 601 q 399 543 381 586 q 410 478 410 511 q 378 358 410 415 q 199 153 314 249 q 164 65 164 125 q 169 -57 164 19 q 172 -137 172 -97 q 169 -212 172 -175 q 110 -294 164 -289 z "},"ß":{"ha":468,"x_min":28,"x_max":439,"o":"m 153 -187 q 264 -75 215 -135 q 326 106 326 7 q 324 156 326 131 q 251 372 306 269 q 174 449 225 419 q 142 142 142 294 q 153 -167 142 -12 l 153 -187 m 142 -333 q 110 -319 124 -333 q 53 -233 63 -276 q 28 97 28 -87 q 32 257 28 149 q 76 530 36 365 q 201 842 117 694 q 250 911 224 878 q 326 956 285 956 q 389 878 389 956 q 386 849 389 864 q 318 693 363 765 q 236 574 257 594 q 225 554 228 565 q 240 540 231 544 l 247 536 q 367 392 328 482 q 439 110 439 224 q 342 -157 439 -37 q 190 -311 272 -239 q 142 -333 167 -333 z "},"à":{"ha":442,"x_min":28,"x_max":414,"o":"m 351 22 l 340 24 q 258 189 265 40 q 251 264 257 192 l 247 264 q 196 172 221 221 q 103 96 154 96 q 82 99 93 96 q 28 193 28 119 q 32 232 28 213 q 97 422 47 333 q 160 496 122 465 q 225 521 189 521 q 240 519 233 521 q 249 518 246 518 q 264 526 257 518 q 303 544 281 544 q 326 540 314 544 q 369 482 365 524 l 369 457 q 364 339 364 440 q 392 121 364 140 q 414 78 414 100 q 408 56 414 67 q 351 22 390 22 m 251 586 q 150 706 200 592 q 146 722 146 714 q 149 739 146 729 q 165 756 153 749 q 186 763 176 763 q 228 732 210 763 q 278 661 250 694 q 293 624 293 643 q 251 586 293 586 z "},"á":{"ha":442,"x_min":28,"x_max":414,"o":"m 351 22 l 340 24 q 258 189 265 40 q 251 264 257 192 l 247 264 q 196 172 221 221 q 103 96 154 96 q 82 99 93 96 q 28 193 28 119 q 32 232 28 213 q 97 422 47 333 q 160 496 122 465 q 225 521 189 521 q 240 519 233 521 q 249 518 246 518 q 264 526 257 518 q 303 544 281 544 q 326 540 314 544 q 369 482 365 524 l 369 457 q 364 339 364 440 q 392 121 364 140 q 414 78 414 100 q 408 56 414 67 q 351 22 390 22 m 232 601 q 204 614 217 601 q 192 642 192 626 q 210 683 192 660 q 271 761 233 707 q 303 781 285 781 q 344 736 344 774 q 272 624 340 706 q 232 601 256 601 z "},"â":{"ha":442,"x_min":28,"x_max":414,"o":"m 351 22 l 340 24 q 258 189 265 40 q 251 264 257 192 l 247 264 q 196 172 221 221 q 103 96 154 96 q 82 99 93 96 q 28 193 28 119 q 32 232 28 213 q 97 422 47 333 q 160 496 122 465 q 225 521 189 521 q 240 519 233 521 q 249 518 246 518 q 264 526 257 518 q 303 544 281 544 q 326 540 314 544 q 369 482 365 524 l 369 457 q 364 339 364 440 q 392 121 364 140 q 414 78 414 100 q 408 56 414 67 q 351 22 390 22 m 339 624 q 293 681 308 624 l 269 749 l 228 663 q 213 638 228 653 q 181 624 199 624 q 164 626 172 624 q 138 671 138 640 q 142 692 138 682 q 150 710 147 701 q 231 862 211 840 q 274 883 250 883 q 339 822 317 883 q 367 724 357 772 q 381 664 379 676 q 354 626 381 638 q 339 624 346 624 z "},"ã":{"ha":442,"x_min":28,"x_max":424,"o":"m 351 22 l 340 24 q 258 189 265 40 q 251 264 257 192 l 247 264 q 196 172 221 221 q 103 96 154 96 q 82 99 93 96 q 28 193 28 119 q 32 232 28 213 q 97 422 47 333 q 160 496 122 465 q 225 521 189 521 q 240 519 233 521 q 249 518 246 518 q 264 526 257 518 q 303 544 281 544 q 326 540 314 544 q 369 482 365 524 l 369 457 q 364 339 364 440 q 392 121 364 140 q 414 78 414 100 q 408 56 414 67 q 351 22 390 22 m 164 608 q 144 614 154 608 q 124 649 124 628 q 128 667 124 657 q 221 754 168 754 q 272 738 246 754 q 292 728 286 728 q 342 782 299 728 q 381 803 361 803 q 406 794 393 803 q 424 758 424 781 q 414 729 424 744 q 290 633 353 633 q 240 653 265 635 q 225 660 229 660 q 211 647 219 660 q 164 608 192 608 z "},"ä":{"ha":442,"x_min":28,"x_max":414,"o":"m 351 22 l 340 24 q 258 189 265 40 q 251 264 257 192 l 247 264 q 196 172 221 221 q 103 96 154 96 q 82 99 93 96 q 28 193 28 119 q 32 232 28 213 q 97 422 47 333 q 160 496 122 465 q 225 521 189 521 q 240 519 233 521 q 249 518 246 518 q 264 526 257 518 q 303 544 281 544 q 326 540 314 544 q 369 482 365 524 l 369 457 q 364 339 364 440 q 392 121 364 140 q 414 78 414 100 q 408 56 414 67 q 351 22 390 22 m 158 596 q 119 612 136 596 q 103 653 103 628 q 117 691 103 675 q 156 707 132 707 q 195 692 179 707 q 213 654 211 678 q 197 614 213 631 q 158 596 182 597 m 307 601 q 272 617 286 601 q 257 657 257 633 q 271 693 257 679 q 307 708 285 707 q 347 694 331 708 q 365 658 364 679 q 347 619 364 636 q 307 601 329 601 z "},"å":{"ha":442,"x_min":28,"x_max":414,"o":"m 351 22 l 340 24 q 258 189 265 40 q 251 264 257 192 l 247 264 q 196 172 221 221 q 103 96 154 96 q 82 99 93 96 q 28 193 28 119 q 32 232 28 213 q 97 422 47 333 q 160 496 122 465 q 225 521 189 521 q 240 519 233 521 q 249 518 246 518 q 264 526 257 518 q 303 544 281 544 q 326 540 314 544 q 369 482 365 524 l 369 457 q 364 339 364 440 q 392 121 364 140 q 414 78 414 100 q 408 56 414 67 q 351 22 390 22 m 242 618 q 188 657 206 618 q 181 699 181 676 q 210 811 182 760 q 249 838 225 836 q 290 814 272 838 q 308 801 296 806 q 336 754 336 790 q 276 632 336 679 q 242 618 258 618 z "},"æ":{"ha":646,"x_min":28,"x_max":594,"o":"m 515 44 q 365 207 429 44 q 319 193 339 193 q 251 264 272 193 l 247 264 q 196 172 221 221 q 103 96 154 96 q 82 99 93 96 q 28 193 28 119 q 32 232 28 213 q 97 422 47 333 q 160 496 122 465 q 225 521 189 521 q 240 519 233 521 q 249 518 246 518 q 264 526 258 518 q 303 544 282 544 q 364 504 349 544 q 486 575 407 575 q 543 543 517 575 q 569 463 569 511 q 543 358 569 413 q 478 281 519 310 q 469 268 469 276 q 486 219 469 260 q 529 164 510 164 q 594 111 594 164 q 576 71 594 90 q 515 44 553 44 z "},"œ":{"ha":540,"x_min":38,"x_max":475,"o":"m 396 57 q 313 100 349 57 q 235 258 264 154 q 192 191 221 218 q 133 164 164 164 q 103 167 126 164 q 56 211 79 171 q 38 294 38 251 q 67 451 38 383 q 151 507 88 507 q 221 460 196 507 q 282 560 236 522 q 367 588 315 588 q 424 556 397 588 q 450 475 450 524 q 424 371 450 425 q 358 293 400 322 q 350 281 350 289 q 367 232 350 272 q 410 176 390 176 q 460 161 444 176 q 475 124 475 146 q 457 83 475 103 q 396 57 433 57 z "},"ç":{"ha":457,"x_min":28,"x_max":429,"o":"m 218 -128 q 182 -97 196 -128 q 192 -68 183 -82 q 236 -18 201 -54 q 297 64 286 29 q 222 35 239 35 q 169 107 169 36 l 172 192 l 119 204 q 28 325 28 244 q 44 394 28 358 q 115 493 69 450 q 193 528 150 528 q 263 485 236 528 q 274 433 274 463 q 244 385 274 400 q 222 379 233 379 q 182 407 196 379 q 142 332 142 358 q 210 301 142 301 q 321 326 257 301 q 382 344 368 344 q 422 321 407 344 q 429 294 429 307 q 399 246 429 264 q 263 193 335 203 l 263 157 q 267 150 263 150 q 286 153 275 150 q 306 157 297 157 q 361 138 336 157 q 388 76 386 118 q 313 -69 382 -10 q 218 -128 243 -128 z "},"è":{"ha":349,"x_min":39,"x_max":303,"o":"m 224 79 q 140 122 176 79 q 46 349 78 193 q 39 403 39 390 q 110 582 39 524 q 181 610 143 610 l 194 610 q 251 578 225 610 q 278 497 278 546 q 251 393 278 447 q 186 315 228 344 q 178 303 178 311 q 194 254 178 294 q 238 199 218 199 l 250 199 q 288 183 272 199 q 303 146 303 168 q 285 106 303 125 q 224 79 261 79 m 213 663 q 111 782 163 668 q 107 799 107 790 q 110 815 107 806 q 126 832 114 825 q 147 839 139 839 q 189 808 171 839 q 239 738 211 771 q 254 700 254 719 q 213 663 254 663 z "},"é":{"ha":349,"x_min":39,"x_max":303,"o":"m 224 79 q 140 122 176 79 q 46 349 78 193 q 39 403 39 390 q 110 582 39 524 q 181 610 143 610 l 194 610 q 251 578 225 610 q 278 497 278 546 q 251 393 278 447 q 186 315 228 344 q 178 303 178 311 q 194 254 178 294 q 238 199 218 199 l 250 199 q 288 183 272 199 q 303 146 303 168 q 285 106 303 125 q 224 79 261 79 m 174 664 q 147 676 160 664 q 133 704 133 689 q 151 746 133 722 q 213 824 175 769 q 244 843 226 843 q 286 799 286 836 q 214 686 282 768 q 174 664 199 664 z "},"ê":{"ha":349,"x_min":39,"x_max":303,"o":"m 224 79 q 140 122 176 79 q 46 349 78 193 q 39 403 39 390 q 110 582 39 524 q 181 610 143 610 l 194 610 q 251 578 225 610 q 278 497 278 546 q 251 393 278 447 q 186 315 228 344 q 178 303 178 311 q 194 254 178 294 q 238 199 218 199 l 250 199 q 288 183 272 199 q 303 146 303 168 q 285 106 303 125 q 224 79 261 79 m 257 663 q 211 719 226 663 l 188 788 l 146 701 q 132 677 146 692 q 99 663 118 663 q 82 665 90 663 q 56 710 56 679 q 60 731 56 721 q 68 749 65 740 q 149 901 129 879 q 192 922 168 922 q 258 861 235 922 q 285 763 275 811 q 299 703 297 715 q 272 665 299 676 q 257 663 264 663 z "},"ë":{"ha":349,"x_min":39,"x_max":315,"o":"m 224 79 q 140 122 176 79 q 46 349 78 193 q 39 403 39 390 q 110 582 39 524 q 181 610 143 610 l 194 610 q 251 578 225 610 q 278 497 278 546 q 251 393 278 447 q 186 315 228 344 q 178 303 178 311 q 194 254 178 294 q 238 199 218 199 l 250 199 q 288 183 272 199 q 303 146 303 168 q 285 106 303 125 q 224 79 261 79 m 108 689 q 69 705 86 689 q 53 746 53 721 q 67 784 53 768 q 106 800 82 800 q 145 785 129 800 q 163 747 161 771 q 147 707 163 724 q 108 689 132 690 m 257 694 q 222 710 236 694 q 207 750 208 726 q 221 786 207 772 q 257 801 235 800 q 297 787 281 801 q 315 751 314 772 q 297 712 314 729 q 257 694 279 694 z "},"ì":{"ha":221,"x_min":28,"x_max":192,"o":"m 97 131 l 93 131 q 43 163 60 131 q 28 304 28 200 l 31 371 q 46 501 32 436 q 110 550 56 544 q 142 538 128 550 q 156 507 156 525 q 153 492 156 500 q 139 401 139 446 l 139 363 l 138 332 q 139 288 139 322 l 146 206 q 97 131 146 138 m 150 596 q 49 715 100 601 q 46 732 46 724 q 49 749 46 739 q 64 765 51 758 q 86 772 76 772 q 126 742 110 772 q 176 671 149 704 q 192 633 192 653 q 150 596 192 596 z "},"í":{"ha":221,"x_min":28,"x_max":196,"o":"m 97 131 l 93 131 q 43 163 60 131 q 28 304 28 200 l 31 371 q 46 501 32 436 q 110 550 56 544 q 142 538 128 550 q 156 507 156 525 q 153 492 156 500 q 139 401 139 446 l 139 363 l 138 332 q 139 288 139 322 l 146 206 q 97 131 146 138 m 83 626 q 57 639 69 626 q 44 667 44 651 q 61 708 44 685 q 122 786 85 732 q 156 806 136 806 q 196 761 196 799 q 124 649 193 731 q 83 626 108 626 z "},"î":{"ha":221,"x_min":-21,"x_max":222,"o":"m 97 131 l 92 131 q 43 163 60 131 q 28 304 28 200 q 31 371 29 363 q 46 501 32 436 q 108 550 56 544 q 142 538 128 550 q 156 507 156 525 q 153 492 156 500 q 139 401 139 446 l 139 363 q 138 332 138 349 q 139 288 139 322 q 144 206 144 217 q 97 131 144 138 m 181 629 q 135 686 150 629 l 111 754 l 69 668 q 56 644 69 658 q 22 629 42 629 q 6 632 14 629 q -21 676 -21 646 q -16 697 -21 688 q -8 715 -11 707 q 72 867 53 846 q 115 889 92 889 q 182 828 158 889 q 208 729 199 778 q 222 669 221 682 q 196 632 222 643 q 181 629 188 629 z "},"ï":{"ha":221,"x_min":-8,"x_max":254,"o":"m 97 131 l 92 131 q 43 163 60 131 q 28 304 28 200 q 31 371 29 363 q 46 501 32 436 q 108 550 56 544 q 142 538 128 550 q 156 507 156 525 q 153 492 156 500 q 139 401 139 446 l 139 363 l 138 332 q 139 288 139 322 q 144 206 144 217 q 97 131 144 138 m 47 646 q 8 662 25 646 q -8 703 -8 678 q 6 741 -8 725 q 44 757 21 757 q 84 742 68 757 q 101 704 100 728 q 86 664 101 681 q 47 646 71 647 m 196 651 q 161 667 175 651 q 146 707 147 683 q 160 743 146 729 q 196 758 174 757 q 236 744 219 758 q 254 708 253 729 q 236 669 254 686 q 196 651 218 651 z "},"ð":{"ha":492,"x_min":28,"x_max":501,"o":"m 413 -76 q 281 279 325 -76 l 263 399 q 196 189 218 242 q 107 104 160 104 q 78 108 100 104 q 39 157 57 113 q 28 240 28 186 q 53 404 28 324 q 78 457 60 433 q 132 485 100 485 q 149 483 140 485 q 161 482 157 482 q 167 483 164 482 q 214 649 169 485 q 153 643 183 647 l 132 642 q 69 665 89 642 q 65 679 65 672 q 99 714 65 699 q 236 733 131 725 q 292 943 281 906 q 349 989 303 989 q 388 973 371 989 q 404 932 404 957 q 376 743 382 797 l 406 743 q 501 703 497 743 q 440 661 501 671 q 371 656 406 657 l 369 607 q 374 497 369 553 q 457 7 394 144 q 464 -25 464 -15 q 442 -67 464 -51 q 413 -76 428 -76 z "},"ñ":{"ha":425,"x_min":28,"x_max":397,"o":"m 343 46 q 257 188 271 46 l 239 339 q 226 326 231 338 q 225 322 226 324 l 176 201 q 99 129 151 129 l 76 132 q 28 278 28 139 q 46 446 28 363 q 69 490 51 471 q 107 508 86 508 q 124 508 110 508 q 154 482 138 507 q 163 465 160 474 q 178 486 174 475 q 181 492 179 490 q 183 496 183 494 q 214 540 197 519 q 268 567 238 567 q 336 510 325 561 q 346 405 339 493 q 364 226 353 317 q 375 166 372 186 q 388 128 378 146 q 397 96 397 111 q 382 62 397 78 q 343 46 367 46 m 96 601 q 76 607 86 601 q 57 642 57 621 q 60 660 57 650 q 153 747 100 747 q 204 731 178 747 q 224 721 219 721 q 274 775 231 721 q 313 796 293 796 q 338 788 325 796 q 356 751 356 774 q 346 722 356 738 q 224 626 285 626 q 172 646 197 628 q 157 653 161 653 q 143 640 151 653 q 96 601 124 601 z "},"ò":{"ha":265,"x_min":38,"x_max":249,"o":"m 133 164 q 103 167 126 164 q 56 211 79 171 q 38 294 38 251 l 38 311 q 67 451 38 383 q 151 507 89 507 q 224 455 200 507 q 249 346 249 403 q 193 190 249 244 q 133 164 165 164 m 179 561 q 78 681 129 567 q 75 697 75 689 q 78 714 75 704 q 93 731 81 724 q 115 738 106 738 q 156 707 139 738 q 206 636 178 669 q 221 599 221 618 q 179 561 221 561 z "},"ó":{"ha":265,"x_min":38,"x_max":249,"o":"m 133 164 q 103 167 126 164 q 56 211 79 171 q 38 294 38 251 l 38 311 q 67 451 38 383 q 151 507 89 507 q 224 455 200 507 q 249 346 249 403 q 193 190 249 244 q 133 164 165 164 m 126 565 q 100 578 113 565 q 88 606 88 590 q 104 647 88 624 q 165 725 128 671 q 199 744 179 744 q 239 700 239 738 q 167 588 236 669 q 126 565 151 565 z "},"ô":{"ha":265,"x_min":31,"x_max":274,"o":"m 133 164 q 103 167 126 164 q 56 211 79 171 q 38 294 38 251 l 38 311 q 67 451 38 383 q 151 507 88 507 q 223 455 199 507 q 247 346 247 403 q 193 190 247 244 q 133 164 164 164 m 232 578 q 186 635 201 578 l 163 703 l 121 617 q 107 592 121 607 q 74 578 93 578 q 57 581 65 578 q 31 625 31 594 q 35 646 31 636 q 43 664 40 656 q 124 816 104 794 q 167 838 143 838 q 233 776 210 838 q 260 678 250 726 q 274 618 272 631 q 247 581 274 592 q 232 578 239 578 z "},"õ":{"ha":265,"x_min":4,"x_max":304,"o":"m 133 164 q 103 167 126 164 q 56 211 79 171 q 38 294 38 251 l 38 311 q 67 451 38 383 q 151 507 89 507 q 224 455 200 507 q 249 346 249 403 q 193 190 249 244 q 133 164 165 164 m 44 581 q 24 586 35 581 q 4 621 4 600 q 7 639 4 629 q 100 726 47 726 q 153 710 125 726 q 171 700 167 700 q 221 754 178 700 q 260 775 240 775 q 285 767 272 775 q 304 731 303 753 q 293 701 304 717 q 171 606 232 606 q 119 625 144 607 q 104 632 110 632 q 90 619 99 632 q 44 581 72 581 z "},"ö":{"ha":265,"x_min":36,"x_max":299,"o":"m 133 164 q 103 167 126 164 q 56 211 79 171 q 38 294 38 251 l 38 311 q 67 451 38 383 q 151 507 89 507 q 223 455 199 507 q 247 346 247 403 q 193 190 247 244 q 133 164 165 164 m 92 575 q 53 591 69 575 q 36 632 36 607 q 51 670 36 654 q 89 686 65 686 q 128 672 113 686 q 146 633 144 657 q 131 593 146 610 q 92 575 115 576 m 240 581 q 206 597 219 581 q 190 636 192 613 q 204 672 190 658 q 240 688 218 686 q 281 673 264 688 q 299 638 297 658 q 281 598 299 615 q 240 581 263 581 z "},"÷":{"ha":556,"x_min":28,"x_max":526,"o":"m 75 276 q 31 301 44 276 q 28 315 28 308 q 54 351 28 336 q 139 369 71 360 q 293 385 232 383 q 457 381 431 385 q 497 368 479 376 q 526 331 526 353 q 474 289 524 292 l 356 294 q 300 294 332 294 q 208 289 268 293 q 143 285 149 285 q 93 278 128 285 l 75 276 m 257 114 q 215 133 233 114 q 197 176 197 151 q 215 219 197 203 q 258 236 232 236 q 303 218 286 235 q 322 176 321 201 q 303 134 322 153 q 257 114 285 115 m 272 433 q 231 451 249 433 q 211 494 213 469 q 228 538 211 521 q 274 554 246 554 q 318 537 300 553 q 338 496 336 521 q 318 453 338 471 q 272 433 299 435 z "},"ø":{"ha":265,"x_min":24,"x_max":306,"o":"m 56 89 q 24 135 24 94 q 53 217 25 154 q 38 294 38 254 q 67 451 38 383 q 151 507 88 507 q 203 486 182 507 q 271 533 238 533 q 289 528 281 533 q 306 494 306 515 q 296 461 306 479 l 244 386 q 247 346 247 365 q 193 190 247 244 q 133 164 164 164 l 121 165 q 98 114 111 139 q 56 89 85 89 z "},"ù":{"ha":361,"x_min":14,"x_max":319,"o":"m 265 83 l 258 83 q 199 163 199 83 l 199 225 l 194 226 l 183 214 q 108 172 150 172 q 81 174 106 172 q 36 224 57 175 q 14 344 14 283 q 69 440 14 440 q 86 438 78 440 q 119 392 117 426 q 118 378 119 385 q 117 365 117 372 l 118 338 q 181 485 128 347 q 256 565 210 565 q 272 563 264 565 q 318 507 313 550 q 319 475 319 492 q 315 381 319 429 q 311 224 311 303 q 313 183 311 203 l 313 142 q 265 83 310 92 m 154 592 q 53 711 104 597 q 49 728 49 719 q 52 744 49 735 q 68 761 56 754 q 89 768 81 768 q 131 738 113 768 q 181 667 153 700 q 196 629 196 649 q 154 592 196 592 z "},"ú":{"ha":361,"x_min":14,"x_max":319,"o":"m 265 83 l 258 83 q 199 163 199 83 l 199 225 l 194 226 l 183 214 q 108 172 150 172 q 81 174 106 172 q 36 224 57 175 q 14 344 14 283 q 69 440 14 440 q 86 438 78 440 q 119 392 117 426 q 118 378 119 385 q 117 365 117 372 l 118 338 q 181 485 128 347 q 256 565 210 565 q 272 563 264 565 q 318 507 313 550 q 319 475 319 492 q 315 381 319 429 q 311 224 311 303 q 313 183 311 203 l 313 142 q 265 83 310 92 m 128 581 q 101 593 114 581 q 88 621 88 606 q 106 663 88 639 q 167 740 129 686 q 199 760 181 760 q 240 715 240 753 q 168 603 236 685 q 128 581 153 581 z "},"û":{"ha":361,"x_min":14,"x_max":319,"o":"m 265 83 l 258 83 q 199 163 199 83 l 199 225 l 194 226 l 183 214 q 108 172 150 172 q 81 174 106 172 q 36 224 57 175 q 14 344 14 283 q 69 440 14 440 q 86 438 78 440 q 119 392 117 426 q 118 378 119 385 q 117 365 117 372 l 118 338 q 181 485 128 347 q 256 565 210 565 q 272 563 264 565 q 318 507 313 550 q 319 475 319 492 q 315 381 319 429 q 311 224 311 303 q 313 183 311 203 l 313 142 q 265 83 310 92 m 236 606 q 190 663 206 606 l 167 731 l 125 644 q 111 620 125 635 q 78 606 97 606 q 61 608 69 606 q 35 653 35 622 q 40 674 35 664 q 47 692 44 683 q 128 844 108 822 q 171 865 147 865 q 238 804 214 865 q 264 706 254 754 q 278 646 276 658 q 251 608 278 619 q 236 606 243 606 z "},"ü":{"ha":361,"x_min":14,"x_max":319,"o":"m 265 83 l 258 83 q 199 163 199 83 l 199 225 l 194 226 l 183 214 q 108 172 150 172 q 81 174 106 172 q 36 224 57 175 q 14 344 14 283 q 69 440 14 440 q 86 438 78 440 q 119 392 117 426 q 118 378 119 385 q 117 365 117 372 l 118 338 q 181 485 128 347 q 256 565 210 565 q 272 563 264 565 q 318 507 313 550 q 319 475 319 492 q 315 381 319 429 q 311 224 311 303 q 313 183 311 203 l 313 142 q 265 83 310 92 m 89 611 q 50 627 67 611 q 33 668 33 643 q 48 706 33 690 q 86 722 63 722 q 126 708 110 722 q 143 669 142 693 q 128 629 143 646 q 89 611 113 613 m 238 617 q 203 633 217 617 q 188 672 189 649 q 201 708 188 694 q 238 724 215 722 q 278 709 261 724 q 296 674 294 694 q 277 634 294 651 q 238 617 260 617 z "},"ý":{"ha":414,"x_min":15,"x_max":374,"o":"m 254 -403 q 232 -399 243 -403 q 197 -350 197 -385 q 206 -325 197 -337 q 238 -231 231 -292 q 239 -226 238 -228 q 261 156 261 -50 q 244 371 261 294 q 121 289 178 289 q 78 297 110 289 q 25 378 47 306 q 15 458 15 418 q 21 510 15 494 q 69 543 35 542 q 119 474 119 540 l 119 458 q 126 415 119 436 l 129 415 q 190 489 135 415 q 267 539 225 539 q 290 535 272 539 q 326 503 308 532 q 347 442 343 475 q 374 138 374 310 q 351 -232 374 -49 q 254 -403 333 -403 m 143 588 q 115 600 128 588 q 103 628 103 613 q 121 669 103 646 q 182 747 144 693 q 214 767 196 767 q 256 722 256 760 q 183 610 251 692 q 143 588 167 588 z "},"þ":{"ha":319,"x_min":28,"x_max":292,"o":"m 89 -85 q 31 -1 31 -85 q 28 144 28 8 q 31 358 28 240 q 43 697 39 683 q 88 735 54 731 q 140 664 140 732 l 144 542 q 150 531 144 531 l 192 536 q 271 486 243 536 q 292 403 292 446 q 242 238 292 321 q 161 164 214 186 q 143 139 143 156 l 146 -18 q 89 -85 140 -85 z "},"ÿ":{"ha":414,"x_min":15,"x_max":374,"o":"m 254 -403 q 232 -399 243 -403 q 197 -350 197 -385 q 206 -325 197 -337 q 238 -231 231 -292 q 239 -226 238 -228 q 261 156 261 -50 q 244 371 261 294 q 121 289 178 289 q 78 297 110 289 q 25 378 47 306 q 15 458 15 418 q 21 510 15 494 q 69 543 35 542 q 119 474 119 540 l 119 458 q 126 415 119 436 l 129 415 q 190 489 135 415 q 267 539 225 539 q 290 535 272 539 q 326 503 308 532 q 347 442 343 475 q 374 138 374 310 q 351 -232 374 -49 q 254 -403 333 -403 m 122 618 q 83 634 100 618 q 67 675 67 650 q 81 713 67 697 q 119 729 96 729 q 159 715 143 729 q 176 676 175 700 q 161 636 176 653 q 122 618 146 619 m 271 624 q 235 640 250 624 q 221 679 221 656 q 235 715 221 701 q 271 731 249 729 q 311 716 294 731 q 329 681 328 701 q 310 641 328 658 q 271 624 293 624 z "},"‘":{"ha":172,"x_min":28,"x_max":144,"o":"m 79 836 q 28 900 28 838 q 97 1038 32 1038 q 144 985 140 1038 q 138 940 144 975 q 126 881 131 911 q 79 836 121 836 z "},"’":{"ha":172,"x_min":28,"x_max":144,"o":"m 75 836 q 28 889 32 836 q 35 933 28 899 q 46 993 42 963 q 93 1038 51 1038 q 144 974 144 1036 q 75 836 140 836 z "},"‚":{"ha":172,"x_min":24,"x_max":140,"o":"m 71 -103 q 24 -50 28 -103 q 31 -6 24 -40 q 42 54 38 24 q 89 99 47 99 q 140 35 140 97 q 71 -103 136 -103 z "},"“":{"ha":319,"x_min":28,"x_max":292,"o":"m 88 756 q 47 779 61 756 q 38 811 39 793 q 28 996 28 904 q 36 1043 28 1019 q 86 1076 53 1076 q 139 993 139 1076 l 139 908 q 136 856 136 882 l 138 810 q 135 789 138 800 q 88 756 122 756 m 226 835 q 175 899 175 836 q 244 1036 181 1036 q 292 983 288 1036 q 285 939 292 974 q 274 879 278 910 q 226 835 268 835 z "},"”":{"ha":319,"x_min":28,"x_max":292,"o":"m 235 756 q 181 839 181 756 l 181 924 q 183 976 183 950 l 182 1022 q 185 1043 182 1033 q 232 1076 197 1076 q 272 1053 258 1076 q 282 1021 281 1039 q 292 836 292 928 q 283 789 292 813 q 235 756 267 756 m 75 796 q 28 849 32 796 q 35 893 28 858 q 46 953 42 922 q 93 997 51 997 q 144 933 144 996 q 75 796 140 796 z "},"„":{"ha":319,"x_min":18,"x_max":282,"o":"m 225 -160 q 171 -76 171 -160 l 171 8 q 174 61 174 35 l 172 107 q 175 128 172 118 q 222 161 188 161 q 263 138 249 161 q 272 106 271 124 q 282 -79 282 13 q 274 -126 282 -103 q 225 -160 257 -160 m 65 -119 q 18 -67 22 -119 q 25 -22 18 -57 q 36 38 32 7 q 83 82 42 82 q 135 18 135 81 q 65 -119 131 -119 z "},"₣":{"ha":331,"x_min":28,"x_max":303,"o":"m 139 -242 l 131 -242 q 78 -208 96 -242 q 69 -171 69 -190 l 63 -46 l 63 58 q 50 108 63 83 q 44 129 44 118 q 53 156 44 143 q 63 186 63 168 l 64 293 q 51 319 64 311 q 28 361 28 338 q 53 401 28 385 q 69 433 69 414 q 114 767 75 656 q 196 836 135 826 q 250 843 229 843 q 285 832 269 843 q 303 793 303 817 q 260 743 303 756 q 224 733 236 739 q 206 686 211 726 q 204 685 204 686 q 182 446 182 536 q 196 432 182 432 l 246 436 q 296 383 296 431 q 268 338 296 354 q 190 324 247 328 q 178 311 178 324 l 175 186 q 186 172 175 179 q 214 128 214 149 q 190 88 214 107 q 174 56 174 76 q 181 -150 174 -47 q 183 -189 182 -157 q 139 -242 179 -232 z "},"₤":{"ha":418,"x_min":28,"x_max":390,"o":"m 310 -143 q 161 -32 215 -143 l 147 -4 q 132 -8 140 -6 q 114 -11 124 -11 q 72 11 89 -11 q 67 39 67 26 q 110 96 67 69 q 126 119 126 107 l 126 189 l 118 190 q 76 175 90 175 q 39 192 56 175 q 28 222 28 207 q 86 286 28 264 l 124 301 q 147 326 144 306 q 232 558 175 447 q 239 578 239 569 q 229 599 238 589 q 169 726 169 663 q 244 829 169 801 q 286 836 263 836 q 357 808 325 836 q 381 761 381 789 q 360 721 381 738 q 332 713 347 713 q 307 718 319 713 q 286 731 290 731 q 279 725 279 729 q 281 719 279 722 q 283 714 283 715 q 332 649 296 693 q 358 581 358 617 q 346 532 358 557 q 278 378 303 449 q 276 371 278 374 q 274 365 275 368 q 272 357 272 361 q 282 347 272 347 q 331 353 324 353 q 390 296 390 353 q 324 240 390 253 l 257 228 q 242 208 242 225 q 239 192 242 201 l 240 171 l 250 169 l 282 172 q 335 122 335 167 q 267 61 335 74 q 251 46 251 56 q 319 -31 275 -26 q 368 -90 368 -37 q 310 -143 368 -136 z "},"€":{"ha":415,"x_min":28,"x_max":388,"o":"m 321 -82 q 74 67 139 -82 q 36 253 36 157 q 38 310 36 286 q 40 341 39 335 q 42 353 42 347 q 32 394 42 376 q 28 411 28 403 q 45 442 28 428 q 68 481 63 456 q 154 668 96 582 q 239 747 188 717 q 292 763 265 763 q 333 754 313 763 q 371 706 371 738 q 319 658 371 658 l 304 658 q 264 633 283 658 q 183 472 211 563 l 254 481 q 307 431 303 475 q 189 365 307 372 q 154 349 154 363 l 150 299 q 161 283 150 283 q 199 289 169 283 q 238 294 228 294 q 290 246 285 294 q 183 181 290 188 q 158 168 158 179 q 163 149 158 161 q 221 54 182 79 q 315 31 253 31 q 388 -26 388 31 q 366 -67 388 -51 q 321 -82 344 -82 z "},"−":{"ha":363,"x_min":28,"x_max":335,"o":"m 75 251 q 31 281 44 251 q 28 300 28 290 q 51 342 28 324 q 76 354 63 350 q 267 379 199 379 q 335 329 332 379 q 292 276 335 289 q 196 267 257 269 q 89 253 129 261 l 75 251 z "}}}
